<svg width="576" height="128" viewBox="0 0 576 128" fill="none" xmlns="http://www.w3.org/2000/svg">
<g clip-path="url(#clip0)">
<rect width="576" height="128" rx="8" fill="#F7C444"/>
<path d="M0 8C0 3.58172 3.58172 0 8 0H90.4211L561 128H8C3.58172 128 0 124.418 0 120V8Z" fill="#F5B43F"/>
<path d="M201 0V72C201 76.4183 197.418 80 193 80H0L201 0Z" transform="translate(375 48)" fill="#F29C41"/>
<rect width="96" height="114" rx="4" transform="translate(420 36)" fill="#20223E"/>
<rect width="96" height="114" rx="4" transform="translate(432 24)" fill="white"/>
<path opacity="0.3" d="M0 0H15.5784C15.9247 3.95732 17 12.7932 17 15.0241C13.9198 16.6674 11.9584 13.6413 10.8396 12.2071H9.97518C6.5269 12.2071 3.73152 9.41093 3.73152 5.96266V3.75603C0.414431 3.75603 6.39045e-06 1.87802 0 0Z" transform="translate(442 38.5)" fill="#765AEA"/>
<path d="M1.68884 2.11297C-0.0764412 3.04368 -0.547332 5.30744 0.703728 6.84878C1.83499 8.24255 3.91583 8.45898 5.31111 7.328L7.33623 5.68647L11.4217 7.46481C11.4882 7.49375 11.5552 7.5197 11.6228 7.54274C12.5553 8.14108 13.8614 7.92689 14.514 6.9635L18.4023 1.22373C18.599 0.93343 18.4878 0.539985 18.1662 0.387754C17.9818 0.300515 17.7645 0.312571 17.592 0.419638L13.6348 2.87501C13.6078 2.86213 13.5804 2.84965 13.5527 2.83759L7.934 0.391885C7.86965 0.363886 7.80477 0.338642 7.73945 0.316182C6.92093 -0.0990497 5.91952 -0.117654 5.06301 0.33393L1.68884 2.11297Z" transform="translate(447 34)" fill="#765AEA"/>
<path d="M7.94825 8.68064C7.29967 8.68064 6.76936 9.19985 6.76936 9.84032C6.76936 10.4808 7.29967 11 7.94825 11C8.59684 11 9.12713 10.4808 9.12713 9.84032C9.12713 9.19985 8.59684 8.68064 7.94825 8.68064Z" transform="translate(447 34)" fill="#765AEA"/>
<path fill-rule="evenodd" clip-rule="evenodd" d="M2 0C0.895508 0 0 0.895386 0 2C0 3.10461 0.895508 4 2 4H66C67.1045 4 68 3.10461 68 2C68 0.895386 67.1045 0 66 0H2ZM2 12C0.895508 12 0 12.8954 0 14C0 15.1046 0.895508 16 2 16H66C67.1045 16 68 15.1046 68 14C68 12.8954 67.1045 12 66 12H2ZM0 26C0 24.8954 0.895508 24 2 24H66C67.1045 24 68 24.8954 68 26C68 27.1046 67.1045 28 66 28H2C0.895508 28 0 27.1046 0 26ZM2 36C0.895508 36 0 36.8954 0 38C0 39.1046 0.895508 40 2 40H26C27.1045 40 28 39.1046 28 38C28 36.8954 27.1045 36 26 36H2Z" transform="translate(446 67)" fill="#F1EEFD"/>

<g clip-path="url(#clip1)">

</g>
</g>
<defs>
<clipPath id="clip0">
<rect width="576" height="128" fill="white"/>
</clipPath>
<clipPath id="clip1">
<rect width="176" height="40" fill="white" transform="translate(72 64)"/>
</clipPath>
</defs>
</svg>
