<svg width="93" height="88" viewBox="0 0 93 88" fill="none" xmlns="http://www.w3.org/2000/svg">
<rect width="92.0005" height="88" fill="black" fill-opacity="0"/>
<rect width="22.0801" height="21.12" fill="black" fill-opacity="0" transform="scale(4.16667)"/>
<rect width="4.82212" height="7.83671" fill="black" fill-opacity="0" transform="translate(11.3984 50.5891) scale(4.16667)"/>
<path d="M19.3824 81.907C21.441 80.9077 21.144 78.4412 21.8879 76.2723C22.1366 75.5491 23.4228 74.896 23.9257 73.9057C24.6846 72.6481 23.3697 71.4788 24.1281 70.2213C25.3965 68.4287 25.893 66.9826 26.6443 65.2693C28.3102 61.5228 30.6601 57.672 31.4906 53.8523C30.4205 51.9548 28.5606 51.1803 28.5606 51.1803C22.6132 49.3091 19.6979 52.1873 18.3686 55.5178C17.0394 58.8486 19.6574 62.2713 18.3117 64.5615C16.9661 66.8526 16.0271 69.9499 16.0786 73.2433C16.1292 76.5372 15.096 78.5241 15.096 78.5241C15.096 78.5241 12.6237 79.3823 11.3984 80.7127C12.4007 84.3295 16.6315 83.4383 19.3824 81.907Z" fill="#FBE1D6"/>
<rect width="5.32585" height="7.6324" fill="black" fill-opacity="0" transform="translate(10.0312 53.8523) scale(4.16667)"/>
<path d="M31.4882 53.8523C30.6576 57.6721 28.3077 61.5228 26.6419 65.2694C25.8906 66.9827 25.394 68.4287 24.1257 70.2214C23.3672 71.4789 24.6821 72.6482 23.9232 73.9057C23.4203 74.896 22.1342 75.5491 21.8854 76.2724C21.1415 78.4412 21.4386 80.9077 19.38 81.9071C16.629 83.4384 12.3982 84.3296 11.396 80.7127C10.8346 81.323 10.344 82.0425 10.1084 82.8431C9.35894 85.3901 14.205 86.5657 18.7159 84.8343C23.2268 83.1018 22.5085 80.9484 23.0639 78.6045C23.6196 76.2611 25.4026 75.6684 25.5556 73.8795C25.8191 70.8103 27.8294 67.7983 29.1778 65.6815C30.5259 63.5638 31.8765 61.6201 32.2033 57.226C32.3061 55.8398 31.9811 54.7267 31.4882 53.8523Z" fill="#E9D1C1"/>
<rect width="4.73213" height="6.0648" fill="black" fill-opacity="0" transform="translate(12.1328 60.5098) scale(4.16667)"/>
<path d="M31.85 60.5098C31.85 60.5098 29.4838 65.6875 28.3603 67.5072C27.2373 69.3265 25.9629 70.6618 25.9903 72.4322C26.0176 74.2025 25.5906 74.5213 24.7487 75.9172C23.9067 77.3133 23.1912 77.5495 23.0712 79.0889C22.951 80.6281 23.2415 82.4764 21.1074 84.0697C18.9736 85.663 16.2691 85.9587 14.6819 85.694C13.0949 85.4295 11.8123 86.2591 12.2038 83.6641C12.5958 81.0697 12.8829 81.0257 14.0277 80.5973C15.172 80.169 15.752 80.4606 15.752 80.4606C15.752 80.4606 14.3124 80.4266 13.6128 81.6745C12.9124 82.9227 11.6396 84.3851 13.803 84.6877C15.9665 84.9907 18.9089 84.988 20.475 83.8611C22.041 82.7346 22.2485 81.7497 22.3627 79.8309C22.4769 77.9123 22.4707 77.5326 23.7418 75.9446C25.0124 74.3563 26.0254 74.7078 25.5692 73.1299C25.1128 71.5524 26.3716 69.2053 27.2155 67.9356C28.0593 66.6656 31.85 60.5098 31.85 60.5098Z" fill="#D3B6A9"/>
<rect width="0.951774" height="1.40403" fill="black" fill-opacity="0" transform="translate(9.70703 79.7753) scale(4.16667)"/>
<path d="M13.5829 79.7778C13.5829 79.7778 11.1342 79.6455 10.2965 81.2943C9.45814 82.9432 8.78552 85.961 13.6728 85.5949L12.9454 85.072C12.9454 85.072 10.7918 85.4013 10.7583 83.2516C10.7251 81.1017 11.142 80.1512 13.5829 79.7778Z" fill="#D3B6A9"/>
<rect width="4.10616" height="1.2394" fill="black" fill-opacity="0" transform="translate(53.5098 74.9641) scale(4.16667)"/>
<path d="M55.769 79.6334C60.7393 80.6608 65.6249 79.8182 70.6188 79.5128C70.5747 79.4011 70.5264 79.2931 70.4846 79.1804C69.8258 77.6029 68.4047 76.243 66.6164 74.9641C64.5295 75.0922 60.459 75.3871 58.9015 75.8243C57.0176 76.3527 54.9213 75.7977 53.5098 76.7437C53.7589 78.1663 54.1656 79.4238 55.769 79.6334Z" fill="#EACFCD"/>
<rect width="4.55127" height="1.57998" fill="black" fill-opacity="0" transform="translate(52.5176 76.7439) scale(4.16667)"/>
<path d="M55.7691 79.6336C54.1657 79.424 53.7591 78.1664 53.5099 76.7439C53.3222 76.8694 53.1457 77.0194 52.9846 77.2042C51.61 78.7805 53.3871 83.2317 56.7768 83.3239C60.1662 83.4161 61.9938 81.5111 64.9121 81.7166C66.8992 81.8569 68.2816 81.6734 71.4812 81.4916C71.1672 80.8507 70.8829 80.1892 70.6189 79.513C65.6251 79.8183 60.7394 80.661 55.7691 79.6336Z" fill="#E3C9BB"/>
<rect width="3.81896" height="1.16466" fill="black" fill-opacity="0" transform="translate(55.5684 78.5204) scale(4.16667)"/>
<path d="M71.4807 81.4916C71.4807 81.4916 70.634 82.0259 67.53 81.9128C64.4263 81.7995 65.3752 81.7772 63.4224 82.1808C61.4696 82.5841 59.9044 83.5509 58.3275 83.3446C56.7505 83.1383 55.7421 82.9329 55.6111 81.3056C55.4801 79.678 55.6003 78.8889 56.6862 78.5912C57.7715 78.2943 59.4572 79.0268 59.4572 79.0268C59.4572 79.0268 58.2728 78.725 57.1554 79.2378C56.0365 79.7508 55.9004 81.2701 56.4402 82.0729C56.9799 82.8754 58.9053 83.2737 60.7165 82.559C62.528 81.8443 61.5515 81.4241 65.2666 81.251C68.9815 81.0775 71.4807 81.4916 71.4807 81.4916Z" fill="#D2B5A7"/>
<rect width="1.22454" height="1.62416" fill="black" fill-opacity="0" transform="translate(52.4727 76.6284) scale(4.16667)"/>
<path d="M56.5561 76.9635C56.5561 76.9635 54.079 75.8339 52.8462 77.7227C51.6132 79.6112 53.4947 84.0301 57.5749 83.3191L56.9101 82.7196C56.9101 82.7196 54.4706 83.2062 53.3695 80.4999C52.2682 77.7935 54.5486 76.4813 56.5561 76.9635Z" fill="#D2B5A7"/>
<rect width="3.34816" height="0.796989" fill="black" fill-opacity="0" transform="translate(52.666 74.9642) scale(4.16667)"/>
<path d="M52.6661 78.285C52.6661 78.285 52.5952 75.6401 56.245 75.8981C57.3431 75.9754 58.332 75.9326 59.2132 75.8351C61.2589 75.6093 62.7243 75.0908 63.6473 75.1093C64.9674 75.1354 66.6167 74.9642 66.6167 74.9642C66.6167 74.9642 61.3505 75.9069 59.3163 76.2265C57.2812 76.5461 55.3342 76.2912 55.3342 76.2912C55.3342 76.2912 53.4242 76.4073 52.6661 78.285Z" fill="#D2B5A7"/>
<rect width="5.22803" height="7.20521" fill="black" fill-opacity="0" transform="translate(5.6875 44.3265) scale(4.16667)"/>
<path d="M21.0167 69.6762C15.8623 64.2951 13.6919 58.4462 9.62266 52.5971C7.85695 50.0596 6.94096 47.1554 5.74965 44.3265C5.24114 50.7467 7.95359 58.1174 10.2222 62.0303C14.4239 69.2773 18.4851 71.6423 26.4556 74.0538C26.8012 74.1582 27.1376 74.2545 27.471 74.3483C25.0393 73.145 22.8233 71.6674 21.0167 69.6762Z" fill="#D78640"/>
<rect width="3.08742" height="1.75788" fill="black" fill-opacity="0" transform="translate(28.918 32.0073) scale(4.16667)"/>
<path d="M40.9944 39.3318C41.2679 39.035 41.5331 38.7332 41.7822 38.4235C39.7626 36.9581 37.3813 35.0472 33.9046 33.3712C32.4196 32.6557 30.6949 32.2337 28.918 32.0073C33.4592 33.933 37.7401 36.1548 40.9944 39.3318Z" fill="#FEE4D9"/>
<rect width="3.70918" height="2.27803" fill="black" fill-opacity="0" transform="translate(25.5391 31.7888) scale(4.16667)"/>
<path d="M39.0795 41.2806C39.7178 40.6403 40.3787 39.9996 40.994 39.3318C37.7397 36.1548 33.4588 33.933 28.9175 32.0073C27.7965 31.8644 26.6547 31.7997 25.5391 31.7888C30.8837 34.1316 35.6855 37.1964 39.0795 41.2806Z" fill="#FFF0E2"/>
<rect width="15.8617" height="10.9536" fill="black" fill-opacity="0" transform="translate(9.38281 31.7871) scale(4.16667)"/>
<path d="M67.6055 75.5459C59.3501 74.4912 47.7305 75.5459 45.5906 67.3714C44.3674 62.6249 46.202 57.6149 41.9213 53.6595C39.7808 51.5499 36.1118 50.7588 35.8062 47.8582C35.4155 45.1649 37.1424 43.2238 39.0786 41.2806C35.6846 37.1963 30.8828 34.1315 25.5382 31.7888C20.6885 31.7414 16.3325 32.7125 16.3325 32.7125C13.6851 33.2017 11.6337 34.1323 10.0685 35.3757C9.14229 40.329 8.57349 45.2541 12.3343 50.0233C13.1483 50.9593 13.4196 52.597 14.233 53.7671C16.1324 56.5743 17.76 59.148 19.93 61.9554C24.271 67.8045 31.0531 70.6121 38.9207 71.7818C40.2772 72.0159 41.6334 73.1854 42.99 73.4194C53.6082 76.4165 64.5011 77.1617 75.4735 77.4269C72.8365 76.6524 70.2446 75.8564 67.6055 75.5459Z" fill="#FFF7EE"/>
<rect width="16.7227" height="10.3361" fill="black" fill-opacity="0" transform="translate(7.39844 35.3757) scale(4.16667)"/>
<path d="M42.9921 73.4195C41.6355 73.1854 40.2793 72.0159 38.9229 71.7818C31.0552 70.6121 24.2731 67.8046 19.9321 61.9555C17.7621 59.1481 16.1346 56.5744 14.2351 53.7672C13.4217 52.5971 13.1504 50.9594 12.3364 50.0234C8.57563 45.2542 9.14443 40.3291 10.0706 35.3757C9.51798 35.8143 9.02444 36.2916 8.58841 36.8032C7.36355 39.8743 6.94708 43.0486 7.99604 46.5139C11.5227 57.9782 17.7621 69.4422 31.5977 72.9519C34.0396 73.6536 36.7527 73.4195 39.1938 74.1216C51.3425 77.8392 64.4803 79.358 77.0766 77.8889C76.5404 77.7385 76.0071 77.5832 75.4756 77.427C64.5032 77.1617 53.6103 76.4166 42.9921 73.4195Z" fill="#FFF0E2"/>
<rect width="17.3673" height="10.2794" fill="black" fill-opacity="0" transform="translate(5.74805 36.8032) scale(4.16667)"/>
<path d="M39.1911 74.1216C36.7499 73.4195 34.0369 73.6536 31.595 72.9519C17.7594 69.4423 11.5199 57.9782 7.99331 46.5139C6.94435 43.0487 7.36082 39.8743 8.58567 36.8032C6.81538 38.8815 5.97106 41.512 5.74805 44.3265C6.93936 47.1554 7.21148 51.4864 8.40639 54.2607C12.8474 64.5716 12.8474 64.8665 19.679 70.3165C21.8317 72.0333 25.0377 73.145 27.4694 74.3482C34.3593 76.2781 38.9181 75.9717 47.8447 78.1714C57.2029 80.4776 66.37 79.4891 73.8182 78.9949C75.2201 78.9019 76.67 78.6159 78.1119 78.1718C77.7649 78.0804 77.4187 77.9852 77.0739 77.8889C64.4776 79.358 51.3398 77.8392 39.1911 74.1216Z" fill="#FEE4D9"/>
<rect width="11.8707" height="5.93374" fill="black" fill-opacity="0" transform="translate(41.4668 38.4235) scale(4.16667)"/>
<path d="M45.7042 46.7479C46.247 46.7479 46.7899 46.2799 46.7899 46.0462C46.5183 42.7706 49.2308 40.8989 51.944 42.7706C54.3852 44.6422 53.8431 48.6195 56.8269 50.4913C57.0984 48.3856 57.6411 46.7479 56.8269 44.6422C61.7105 45.8123 66.3221 47.2159 70.9342 49.3216C72.5619 50.0233 74.1895 49.7896 75.8174 50.2572C83.9256 51.9297 87.6705 57.1284 90.9281 63.1474C89.8722 57.5004 84.2351 51.2724 81.8417 50.1714C78.9765 48.8536 63.8891 43.9125 61.2154 43.7475C58.5419 43.5829 57.0138 43.089 54.3398 41.7713C51.6665 40.4536 50.3289 41.1124 46.7004 40.7832C45.0148 40.6302 43.5346 39.6946 41.7822 38.4235C41.6796 38.5512 41.5736 38.6763 41.4668 38.8013C44.3573 40.9883 46.2099 43.2582 45.7042 46.7479Z" fill="#CF782C"/>
<rect width="13.311" height="8.39074" fill="black" fill-opacity="0" transform="translate(35.75 39.4561) scale(4.16667)"/>
<path d="M77.9856 53.0651C75.8156 52.1291 73.3742 52.831 71.2034 52.363C67.1344 51.1933 63.6073 46.748 59.5379 48.1516C58.4528 48.6196 59.2669 53.5331 56.2826 52.831C53.0271 51.6615 53.0271 47.9181 51.6709 45.1103C51.3993 44.6423 50.5856 44.1747 50.3142 44.4082C47.8727 45.1103 48.4156 48.1516 46.788 49.7897C46.2452 50.0234 45.1595 50.4914 45.1595 50.2573C44.2994 46.3625 43.0945 42.763 40.876 39.4561C38.4105 42.0957 35.2943 44.3332 35.8057 47.8583C36.1113 50.7589 39.7803 51.55 41.9207 53.6596C42.2412 53.9553 42.5231 54.2579 42.779 54.565C43.504 55.0358 44.0965 55.589 44.3461 56.3405C46.2452 60.7858 46.2452 66.1669 50.5856 68.9744C58.4528 73.8875 67.9477 75.0572 77.1718 74.1216C81.7875 73.4797 85.9139 71.3586 90.2221 69.5745C90.9387 68.0971 91.0433 66.139 91.2124 64.5288C88.6319 59.3344 83.6452 55.505 77.9856 53.0651Z" fill="#D78640"/>
<rect width="11.4283" height="5.66561" fill="black" fill-opacity="0" transform="translate(42.7793 54.5649) scale(4.16667)"/>
<path d="M77.172 74.1216C67.948 75.0572 58.453 73.8875 50.5858 68.9744C46.2454 66.1668 46.2454 60.7857 44.3464 56.3404C44.0968 55.589 43.5042 55.0357 42.7793 54.5649C45.9406 58.364 44.4588 62.98 45.5904 67.3714C47.7302 75.5459 59.3499 74.4913 67.6052 75.5459C71.1182 75.9592 74.5482 77.2345 78.1122 78.1717C83.0068 76.6643 87.814 73.3304 90.3971 69.5014C86.0249 71.3003 81.8502 73.4708 77.172 74.1216Z" fill="#D07B31"/>
<rect width="12.0923" height="6.56985" fill="black" fill-opacity="0" transform="translate(40.877 38.8014) scale(4.16667)"/>
<path d="M90.6979 61.9259C87.4412 55.9067 83.9247 51.9298 75.8165 50.2574C74.1886 49.7898 72.5611 50.0235 70.9333 49.3218C66.3212 47.2161 61.7097 45.8125 56.826 44.6424C57.6402 46.7481 57.0975 48.3858 56.826 50.4915C53.8422 48.6197 54.3843 44.6424 51.9432 42.7708C49.2299 40.899 46.5175 42.7708 46.789 46.0464C46.789 46.2801 46.2461 46.7481 45.7033 46.7481C46.209 43.2583 44.3565 40.9884 41.4659 38.8014C41.2755 39.0231 41.0782 39.2406 40.877 39.4561C43.0955 42.7631 44.3004 46.3626 45.1605 50.2574C45.1605 50.4915 46.2461 50.0235 46.789 49.7898C48.4165 48.1517 47.8737 45.1104 50.3152 44.4083C50.5865 44.1748 51.4003 44.6424 51.6718 45.1104C53.0281 47.9182 53.0281 51.6616 56.2836 52.8311C59.2679 53.5331 58.4538 48.6197 59.5389 48.1517C63.6083 46.7481 67.1354 51.1934 71.2044 52.3631C73.3752 52.8311 75.8165 52.1292 77.9865 53.0652C83.9964 55.6566 88.8535 60.5387 91.2134 66.1758C91.4248 65.2609 90.8804 62.9 90.6979 61.9259Z" fill="#D07B31"/>
<rect width="7.65485" height="5.3816" fill="black" fill-opacity="0" transform="translate(45.7402 53.4016) scale(4.16667)"/>
<path d="M74.4563 53.4016C63.3847 54.7367 63.593 65.9586 64.7495 70.8563C64.0847 71.4688 63.3234 72.0043 62.6893 72.5871C62.9086 72.1511 63.0882 71.6207 63.2174 71.268C62.5416 71.7854 61.6763 72.1434 60.9935 72.6696C61.4333 72.0868 61.6653 71.392 62.0293 70.8415C61.3886 71.3073 60.4862 71.6095 59.8218 72.086C59.9891 71.6811 60.1923 71.1072 60.4239 70.6824C59.8803 71.1184 59.1475 71.3932 58.5837 71.8343C58.7694 71.345 58.8692 70.8656 58.994 70.379C58.4152 70.8863 57.2794 71.3416 56.728 71.7717C56.838 71.2826 56.9971 70.7236 57.1269 70.3054C56.6727 70.6777 56.1205 71.0327 55.6766 71.4958C55.7952 71.0104 55.8685 70.4542 55.9637 69.9511C55.6581 70.301 55.3113 70.6076 54.9365 70.8843C54.9593 70.6603 54.9717 70.4195 54.9667 70.1489C54.9842 70.2152 54.4877 70.7513 54.3939 70.7661C54.5736 70.2406 54.7229 69.653 54.7888 69.1292C54.455 69.6534 53.989 70.2213 53.6771 70.7341C53.8335 70.108 53.7945 69.1961 53.9706 68.5072C53.6951 68.8919 53.2373 69.3816 53.0067 69.6992C53.181 68.9182 53.1347 67.9717 53.3261 67.1595C53.0161 67.6849 52.5054 68.2826 52.2195 68.7216C52.4523 67.998 52.4613 67.1707 52.6974 66.4236C52.2686 66.9806 51.5027 67.4086 51.1334 67.7783C51.2765 67.2294 51.2999 66.55 51.4155 66.0245C50.984 66.3449 50.3665 66.7886 49.9944 67.1005C50.2701 66.543 50.3432 65.8117 50.57 65.2373C50.0631 65.6418 49.4104 65.9327 48.9199 66.3176C49.1896 65.7288 49.2625 64.8434 49.5843 64.2031C48.9977 64.8199 48.5046 64.8949 47.9815 65.2851C48.1961 64.7103 48.2576 64.0021 48.4519 63.3983C48.0698 63.6275 47.6064 64.0981 47.2626 64.3746C47.2151 63.9419 47.4295 63.3829 47.3624 62.8881C47.3219 63.0415 46.7594 63.6285 46.7099 63.5152C46.7818 63.0908 46.768 62.216 46.6534 61.7855C46.4085 62.4651 46.1224 62.4041 45.7402 62.3652L48.0713 69.9302C49.2637 71.0485 51.7184 72.888 53.3545 72.8157L54.1309 73.9288C57.6023 74.2379 60.9783 74.8286 64.4129 75.3482C69.4517 76.1112 77.3379 76.8039 77.6258 70.2795C77.8995 64.0874 72.268 60.1223 74.4563 53.4016Z" fill="#D07B31"/>
<rect width="2.8476" height="1.38881" fill="black" fill-opacity="0" transform="translate(59.377 47.4518) scale(4.16667)"/>
<path d="M59.377 47.6677C60.3774 48.6369 60.9202 49.9191 60.9149 51.2789C61.0568 50.5588 61.3992 49.8849 61.5176 49.1554C61.6166 49.3512 62.3318 50.1709 62.4981 50.6281C62.6344 50.0306 62.98 49.4296 63.0767 48.8139C63.1687 49.4535 63.4384 50.1313 63.5115 50.7603C63.6712 50.3375 64.0332 49.7726 64.2856 49.3548C64.2738 50.0969 64.6357 50.8799 64.7058 51.5013C64.9827 51.0499 65.2389 50.5937 65.5102 50.1913C65.6627 50.6451 65.5364 51.2433 65.5911 51.7145C65.999 51.4224 66.1311 50.8703 66.5612 50.6265C66.6057 51.1081 66.4831 51.7192 66.4723 52.1953C66.8832 52.0461 66.8992 51.4038 67.3598 51.2345C67.4097 51.7149 67.0385 52.144 67.1016 52.6055C67.5071 52.2419 67.784 51.8079 68.2131 51.4786C68.0585 51.9567 67.813 52.4114 67.7197 52.9154C68.1985 52.5703 68.6747 52.1829 69.1676 51.8973C69.0686 52.2026 68.7214 52.8098 68.727 53.1682C68.8657 53.1694 69.3493 52.7636 69.3517 52.7952C69.258 52.9501 69.2618 53.0982 69.3625 53.2385C70.1513 52.779 70.8013 51.8653 71.242 51.1235C69.2307 49.3903 66.6079 48.0576 63.922 47.4518" fill="#D07B31"/>
<rect width="1.37102" height="2.50011" fill="black" fill-opacity="0" transform="translate(49.2383 43.5613) scale(4.16667)"/>
<path d="M49.2383 43.5613C50.1515 44.5397 50.7371 45.4052 50.3168 46.7727C50.5865 46.5568 50.9657 46.0503 51.1162 45.7773C51.0601 46.2923 51.1785 47.2608 51.11 47.9477C51.5037 47.8552 51.6177 47.2735 52.0326 47.1813C51.9521 47.8171 52.0919 48.6826 51.9663 49.3584C52.2091 49.0641 52.4642 48.6544 52.8162 48.408C52.7188 49.3452 53.03 50.5149 53.039 51.2223C53.1065 50.784 53.179 50.3144 53.3221 49.8928C53.1766 51.0181 53.4559 51.9051 53.5767 52.9139C53.7003 52.5582 53.8418 52.0257 54.0135 51.6672C54.2836 52.4163 54.759 53.2189 54.9509 53.9784C54.2894 50.7828 54.5021 47.2314 52.0352 44.534" fill="#D07B31"/>
<rect width="1.48162" height="1.90119" fill="black" fill-opacity="0" transform="translate(53.8965 46.5162) scale(4.16667)"/>
<path d="M53.8965 50.6937C54.2802 51.8669 54.9303 52.871 55.9223 53.6799C55.8569 53.5366 55.9944 53.1691 56.1392 53.1055C56.2635 53.5003 56.348 53.9807 56.4526 54.4378C56.8819 53.9012 57.2636 53.2905 57.6048 52.6938C57.7152 52.8041 57.716 53.7131 57.7527 53.7162C57.9468 53.1679 58.3473 52.5061 58.4733 51.7538C58.6292 52.1606 58.5591 52.6016 58.6332 53.0106C58.8522 52.2208 59.0702 51.4929 59.1345 50.6459C59.1677 50.8074 59.3431 51.2608 59.2858 51.3934C59.2204 49.6065 60.1707 48.029 60.0611 46.5162C58.0105 47.4453 58.6344 53.1929 55.6446 51.7747" fill="#D07B31"/>
<rect width="1.34696" height="2.14378" fill="black" fill-opacity="0" transform="translate(45.2734 42.6793) scale(4.16667)"/>
<path d="M45.2738 48.9646C45.2641 49.8382 45.431 50.7778 45.6178 51.6117C45.8345 50.9736 46.2058 50.3212 46.419 49.6813C46.4402 50.1574 46.5997 50.9031 46.6191 51.1131C46.8605 50.2308 47.3354 49.2994 47.5644 48.4747C47.5896 48.9832 47.6649 49.5935 47.6954 50.0658C47.7823 49.2088 47.9879 48.2834 48.0713 47.4562C48.0977 47.9197 48.1945 48.5175 48.2367 49.0071C48.4175 48.3359 48.8434 47.5364 49.0119 46.867C49.0414 47.2511 49.1265 47.7726 49.2279 48.1571C50.4039 46.3659 51.9625 44.4333 49.8213 42.6793C48.051 43.6056 47.3514 45.5051 46.7892 47.2357" fill="#D07B31"/>
<rect width="1.41334" height="2.56539" fill="black" fill-opacity="0" transform="translate(39.4375 39.3464) scale(4.16667)"/>
<path d="M41.3104 39.3464C40.4763 40.1178 39.8011 41.0682 39.4375 42.0342C39.932 41.9 40.3096 41.6244 40.7907 41.444C40.9037 41.9101 40.2389 42.1641 40.3056 42.5983C40.5825 42.8944 41.112 42.0705 41.3124 42.2259C41.2278 42.6834 40.8866 43.1133 40.7829 43.6226C41.2102 43.3855 41.5955 43.0316 41.983 42.7383C41.7984 43.2375 41.5268 43.7815 41.3669 44.303C41.7976 44.1184 42.118 43.729 42.572 43.5424C42.4167 44.1044 42.1765 44.7005 42.0244 45.2632C42.5313 45.1935 42.6764 44.6221 43.1248 44.4826C42.9817 45.0281 42.7559 45.5652 42.6445 46.1141C42.8495 46.2784 43.3884 45.4273 43.6146 45.4286C43.5794 45.9442 43.2987 46.5194 43.3277 47.0255C43.7613 46.883 43.8961 46.4041 44.3142 46.2152C44.2401 46.8089 44.0552 47.3608 44.0257 47.9615C44.1009 47.904 44.7674 47.2846 44.6745 47.2148C44.6214 48.1442 44.9011 49.1497 44.859 50.0356C45.9179 48.2033 44.853 46.0097 44.8067 43.9934" fill="#D07B31"/>
<rect width="1.57499" height="2.4047" fill="black" fill-opacity="0" transform="translate(51.918 42.1564) scale(4.16667)"/>
<path d="M51.918 42.1564C52.6285 43.4583 52.9975 44.9059 52.8945 46.3241C52.951 46.3427 53.3576 45.7428 53.4505 45.6854C53.406 46.4992 53.5858 47.4291 53.5675 48.2619C53.8109 48.0884 53.8965 47.5286 54.056 47.2842C54.161 48.0714 54.3633 48.8402 54.5048 49.5529C54.5342 49.6043 54.9752 48.9438 54.9335 48.9172C54.9568 49.728 55.2014 50.6644 55.2014 51.4135C55.4544 51.5434 55.6037 50.6281 55.6876 50.5383C55.8197 50.9998 55.6524 51.5288 55.8107 51.994C56.0373 51.479 56.4001 50.8553 56.6838 50.3385C56.5962 50.9226 56.6052 51.6121 56.5041 52.176C57.6222 50.7033 58.1157 48.7764 57.7715 46.9765C57.8673 47.3926 58.0323 48.0678 58.0947 48.4673C59.5111 44.0712 56.7986 44.4977 53.6661 43.1291" fill="#CF782C"/>
<rect width="3.04938" height="1.27564" fill="black" fill-opacity="0" transform="translate(56.8125 44.7499) scale(4.16667)"/>
<path d="M56.8125 44.7499C57.4839 45.4869 58.334 46.3775 58.5808 47.6795C58.7537 47.2596 59.4068 46.4547 59.5553 46.0613C59.8376 46.3884 59.9195 46.9894 60.1277 47.3745C60.5352 47.4592 60.5825 46.6011 60.8944 46.7206C61.2891 47.1787 61.2192 47.6475 61.6876 48.046C61.9936 47.7071 61.8754 47.2144 62.1649 46.8668C62.5181 47.3806 62.8527 47.9331 63.1756 48.4702C63.578 48.2546 63.0953 47.6238 63.4379 47.4272C63.7699 47.9866 64.0686 48.5625 64.3906 49.1235C64.6839 48.8093 64.5108 48.3154 64.8772 48.0734C65.0363 48.2915 65.2232 49.0842 65.4653 49.2181C65.7289 48.9802 65.5222 48.5931 65.7133 48.4027C65.9387 48.7882 66.0783 49.2242 66.3069 49.6036C66.3933 49.4835 66.561 48.918 66.6866 48.8028C66.8659 49.0984 66.8793 49.4277 67.1007 49.7153C67.4618 49.6186 67.263 49.2712 67.4407 49.0244C67.6435 49.316 67.7078 49.6606 67.9107 49.9555C68.2752 50.0153 68.2371 49.541 68.5923 49.4273C68.953 49.521 68.655 49.9393 68.8706 50.065C72.0163 44.9238 62.827 45.6022 60.076 44.8582" fill="#CF782C"/>
<rect width="1.81827" height="0.851704" fill="black" fill-opacity="0" transform="translate(68.6992 47.4518) scale(4.16667)"/>
<path d="M68.6992 48.3161C68.952 49.1925 69.5346 50.0582 70.1942 50.7005C70.5063 50.5002 70.5256 50.1569 70.7971 49.8944C71.0571 50.2126 71.2026 50.7935 71.6065 50.9293C71.931 50.7846 71.8651 50.347 72.1715 50.2094C72.4504 50.4196 72.4239 50.7724 72.6816 51.0006C72.9815 50.8004 73.3583 50.5172 73.6987 50.3024C73.8214 50.4354 73.7522 50.8699 73.8316 50.9299C74.1888 50.9782 74.2513 50.5337 74.5124 50.3744C75.4592 50.8081 75.0982 50.8243 76.2753 50.5961C75.5388 48.054 72.5613 48.657 71.3797 47.4518" fill="#CF782C"/>
<rect width="3.41085" height="2.53332" fill="black" fill-opacity="0" transform="translate(75.6914 50.0453) scale(4.16667)"/>
<path d="M75.6914 50.2616C76.1859 50.7717 77.0368 51.4455 77.6462 51.95C77.8376 51.8529 77.9698 51.4224 78.1473 51.272C79.1432 52.2057 78.7642 51.8861 80.0993 52.1449C80.4085 52.3646 80.4153 52.9093 80.7256 53.1691C80.8114 53.1395 81.3199 52.8191 81.3675 52.8207C81.5078 52.9279 81.2902 53.1326 81.4361 53.2415C81.5695 53.2871 81.9165 52.9293 82.0904 52.9155C82.3166 53.1182 82.0944 53.5542 82.3453 53.7293C83.2891 54.0145 82.8039 53.5877 83.4201 54.4339C83.7337 54.4884 83.9084 54.0305 84.1672 54.0782C84.2772 54.4245 84.1065 54.7837 84.3045 55.1149C84.4752 55.1684 84.6072 54.7655 84.7382 54.8427C84.8817 55.0894 84.8052 55.4692 84.9067 55.7463C86.6598 56.7668 88.161 59.0938 89.9033 60.6008C88.7677 55.441 83.5113 50.6913 77.9055 50.0453" fill="#CF782C"/>
<rect width="2.20665" height="2.12459" fill="black" fill-opacity="0" transform="translate(40.8828 39.1279) scale(4.16667)"/>
<path d="M41.7768 39.1305C41.8345 39.0754 41.0851 39.9289 40.8828 40.2185C41.2314 40.1914 41.5273 40.0179 41.8697 39.9324C41.8906 40.2565 41.4999 40.6059 41.681 40.9243C42.0775 40.8734 42.3377 40.5331 42.7142 40.4837C42.7915 40.9125 42.4592 41.3053 42.503 41.7357C42.9061 41.8877 42.9955 41.4618 43.3818 41.5451C43.3195 42.0804 43.2103 42.547 43.2103 43.089C43.3936 43.1005 43.7234 42.7185 43.8428 42.7606C43.867 43.2019 43.7881 43.5647 43.8865 43.98C44.1886 44.1302 44.2038 43.6214 44.3903 43.6271C44.4569 43.8616 44.3591 44.811 44.3531 45.0088C44.6562 44.8029 44.8121 44.4498 45.1214 44.269C45.1877 44.7999 44.9483 45.3362 45.0773 45.8808C45.2098 45.8281 45.348 45.8026 45.4925 45.8046C45.5145 46.5016 45.6588 47.303 45.8479 47.9804C46.1025 47.5305 46.3692 47.0768 46.5918 46.5513C46.5802 46.4631 46.6846 47.618 46.6924 47.8428C47.162 46.6642 47.5565 45.4661 47.8604 44.2996C48.085 44.4914 48.1247 45.1572 48.2441 45.4337C48.3052 44.8207 48.4621 44.1326 48.5568 43.5031C48.6975 43.7568 48.7077 44.4857 49.0375 44.5872C51.729 41.3341 48.5057 42.3759 47.1093 41.7401C45.7675 41.129 44.3108 40.4944 42.5926 39.4544" fill="#CF782C"/>
<rect width="1.18299" height="1.98527" fill="black" fill-opacity="0" transform="translate(49.5117 41.6156) scale(4.16667)"/>
<path d="M49.5859 41.6156C49.4346 42.5512 49.5141 43.5263 49.8299 44.4044C50.3017 44.1443 50.6477 43.8762 51.067 43.488C51.148 43.8038 50.9436 44.4248 51.2291 44.6654C51.3706 44.603 51.7196 44.0529 51.7913 44.0509C51.9123 44.3235 51.9294 45.0213 51.9987 45.2567C52.1181 45.3008 52.2796 44.6593 52.3653 44.6054C52.5354 45.3239 52.5252 46.0417 52.7386 46.7419C52.7592 46.7584 52.9155 46.2719 52.8832 46.2186C52.8991 46.8911 52.9878 47.3952 53.1086 48.027C53.1884 47.9469 53.2693 47.8668 53.3504 47.7874C53.5328 48.5823 53.7037 49.2137 54.1428 49.8876C54.563 47.7021 55.1698 40.5785 50.9845 41.9403" fill="#CF782C"/>
<rect width="2.39566" height="2.12009" fill="black" fill-opacity="0" transform="translate(34.7461 46.7692) scale(4.16667)"/>
<path d="M36.3497 46.7692C35.395 48.0723 34.7689 49.5002 34.7461 51.086C35.1674 50.5011 35.8797 50.0303 36.2692 49.5631C35.9791 50.2897 35.9853 50.8572 35.8178 51.5628C36.1285 51.292 36.5258 50.8599 36.8706 50.567C36.7921 51.1244 36.653 51.7377 36.5282 52.289C36.7232 52.3832 37.1419 51.5245 37.3829 51.5447C37.447 52.0123 37.058 52.5107 37.1872 52.9202C37.6544 52.5612 38.0435 52.1372 38.5345 51.8346C38.451 52.3788 38.1286 52.6477 37.9469 53.1352C38.4155 53.0215 38.7209 52.4899 39.2197 52.3812C39.0098 52.9846 38.7399 53.2969 38.6269 53.9303C38.9551 53.5505 39.1853 53.2185 39.5449 52.9264C39.5203 53.3762 39.0348 53.6298 38.9923 54.0706C39.5143 53.8705 39.7421 53.3071 40.3505 53.2246C40.3022 53.754 39.8006 54.0213 39.7475 54.5208C40.1832 54.2171 40.4651 53.8708 40.9319 53.6265C40.6627 54.0416 40.3567 54.5998 40.1762 55.0601C40.6058 54.6882 41.2777 54.2459 41.65 53.9445C41.4254 54.264 41.0636 54.901 40.7727 55.2975C41.2465 55.0155 41.9874 54.5751 42.4149 54.2559C42.1409 54.7081 41.8135 55.1511 41.5202 55.6029C41.8822 55.2829 42.2919 54.9245 42.6331 54.6061C42.5279 54.8007 42.0104 55.352 42.0864 55.5652C42.8335 55.337 44.038 54.6134 44.728 54.209C44.0634 52.0439 43.0941 48.3711 40.6102 47.7304" fill="#D78640"/>
<rect width="1.29392" height="2.10135" fill="black" fill-opacity="0" transform="translate(33.8379 40.9227) scale(4.16667)"/>
<path d="M39.2292 41.8574C38.3604 41.2329 38.0559 40.4996 36.5354 41.2224C36.8919 41.4721 37.2577 41.2748 37.6109 41.6265C36.9984 41.9068 36.6122 41.7927 36.17 42.3513C36.2766 42.4885 36.8536 42.2996 36.8786 42.4079C36.3447 42.7324 35.843 42.8728 35.4491 43.3512C35.4545 43.337 35.9264 43.1987 35.9163 43.2962C35.4732 43.7472 34.8946 44.0065 34.5039 44.4793C34.8072 44.5946 35.2776 44.3192 35.6323 44.4025C35.1753 44.7203 34.6149 44.9923 34.2941 45.3721C34.333 45.5564 35.1324 45.1887 35.1528 45.2268C34.7152 45.8136 34.227 46.3075 33.9158 46.9742C34.2901 47.1088 34.5604 46.4871 34.9218 46.6077C34.5632 47.112 34.1489 47.5981 33.8379 48.1092C33.9661 48.1147 34.7253 47.7071 34.7176 47.6961C34.6411 48.1435 34.1014 48.457 34.0968 48.95C34.2246 49.1198 34.8431 48.2993 34.9282 48.2562C34.6137 48.7037 34.3526 49.1968 34.2098 49.6784C35.1414 48.4959 36.2718 48.2264 37.7327 48.4779" fill="#D78640"/>
<rect width="1.14924" height="1.02888" fill="black" fill-opacity="0" transform="translate(37.2773 37.8459) scale(4.16667)"/>
<path d="M41.8893 38.4786C41.493 38.2565 40.9994 38.0793 40.5899 37.8459C40.6067 37.9077 40.9238 38.1475 40.9872 38.2091C40.6456 38.1177 40.1134 38.0789 39.7758 37.9979C39.998 38.1221 40.243 38.3252 40.462 38.4624C39.9754 38.3668 39.4949 38.4061 39.0149 38.3534C39.3725 38.4748 39.7025 38.6649 40.0537 38.792C39.5206 38.7486 38.9943 38.8893 38.4982 38.9081C38.9866 39.0715 39.5058 39.442 39.9013 39.596C39.1744 39.365 38.7128 39.4305 38.0903 39.4965C38.4148 39.55 38.6222 39.5693 38.953 39.6942C38.5797 39.6798 38.1107 39.7817 37.7543 39.8075C38.1223 39.9406 38.4721 40.1553 38.839 40.2921C38.4008 40.2375 37.9392 40.255 37.5141 40.2124C37.8517 40.3014 38.1971 40.437 38.5381 40.5316C38.134 40.4972 37.6639 40.5377 37.2773 40.5239C37.7114 40.6306 38.1153 40.8221 38.5194 40.9498C38.2572 40.904 37.9703 40.8819 37.718 40.8653C38.1496 41.2706 38.5256 41.6503 38.9396 42.1329C39.9706 41.2674 42.1458 41.2913 42.0636 39.717" fill="#D07B31"/>
<rect width="2.02062" height="1.77745" fill="black" fill-opacity="0" transform="translate(44.8086 66.545) scale(4.16667)"/>
<path d="M45.7398 66.545C45.2606 67.2724 44.92 68.1681 44.8086 68.9614C45.0406 68.9598 45.3107 68.6075 45.5417 68.5299C45.6298 68.8913 45.2109 69.1241 45.3233 69.5119C45.6286 69.4734 45.743 69.156 46.072 69.1288C46.0536 69.4861 45.7507 69.7918 45.7585 70.1469C45.9983 70.1619 46.3511 69.7995 46.5176 69.8481C46.5925 70.1882 46.3064 70.5208 46.3854 70.8751C46.6725 70.8111 46.749 70.4785 47.0499 70.4568C47.0004 70.8188 46.8402 71.152 46.8247 71.5181C46.9508 71.4982 47.2489 71.1759 47.3338 71.1998C47.3338 71.4974 47.1856 71.7353 47.1501 72.0436C47.4376 72.0167 47.5959 71.8 47.87 71.7584C47.872 72.0459 47.7145 72.3035 47.7141 72.5945C47.9733 72.5657 48.1352 72.357 48.3999 72.3404C48.4147 72.5933 48.2554 72.7796 48.2424 73.0325C48.5255 72.9026 48.7563 72.6543 49.0192 72.4924C49.0867 72.6821 48.9869 73.051 49.0699 73.1995C49.3163 73.0862 49.4529 72.8633 49.7 72.7498C49.82 72.9365 49.6383 73.2452 49.6607 73.4462C49.9761 73.3467 50.162 73.053 50.4401 72.9083C50.4717 73.2072 50.2802 73.4454 50.2842 73.7626C50.4417 73.5772 50.6865 73.2537 50.8839 73.0826C50.8005 73.3714 50.7013 73.6659 50.6198 73.9511C54.3279 73.1355 53.6006 71.5614 51.4168 69.1774" fill="#D07B31"/>
<rect width="1.04316" height="3.18511" fill="black" fill-opacity="0" transform="translate(42.2871 55.0077) scale(4.16667)"/>
<path d="M43.0218 55.0077C42.8783 55.4013 42.4688 55.8403 42.2871 56.1985C42.7495 56.2325 42.8721 56.1172 43.3033 55.951C43.0354 56.3235 42.6403 56.5019 42.4991 56.9529C42.7968 56.9334 43.1356 56.6033 43.4129 56.648C43.3227 56.9719 42.8563 57.2129 42.7379 57.5798C43.1083 57.535 43.3463 57.2235 43.6757 57.1627C43.5116 57.5984 43.1185 57.9357 42.9547 58.3488C43.1402 58.3616 43.5902 57.9398 43.7268 58.0362C43.5669 58.4757 43.2019 58.8069 43.0386 59.2216C43.1332 59.2773 43.5669 58.9114 43.7861 59.0061C43.6777 59.4812 43.2908 59.6249 43.0604 60.0601C43.3848 60.1053 43.7236 59.8331 44.0566 59.8247C43.9097 60.2595 43.4381 60.4827 43.3305 60.9144C43.5615 61.0482 43.9101 60.4804 44.1854 60.5171C44.0386 61.0409 43.5739 61.4341 43.4788 61.9076C43.733 61.9736 43.9452 61.4118 44.2656 61.4931C44.0169 61.9361 43.6214 62.2927 43.4203 62.7769C43.6286 63.0083 44.0121 62.2912 44.2125 62.3829C43.9871 62.8602 43.621 63.3659 43.4646 63.858C43.697 63.9652 44.1229 63.3128 44.3709 63.3008C44.0955 63.8584 43.8516 64.4766 43.5778 65.0168C43.9871 64.9219 44.2173 64.5129 44.6064 64.4235C44.4988 64.9481 44.1491 65.4112 44.0121 65.9185C44.0169 65.9355 44.608 65.5707 44.6076 65.5192C44.385 65.9949 44.1417 66.6093 44.0598 67.0696C44.3733 66.7343 44.636 66.304 44.9231 65.9578C44.744 66.5326 44.6048 67.0461 44.3609 67.6002C44.5749 67.2925 44.7857 66.9054 45.0521 66.6301C44.9035 67.0773 44.8614 67.7686 44.775 68.279C48.4537 66.7505 45.9315 57.5293 43.5587 55.3059" fill="#D07B31"/>
<rect width="3.62954" height="0.811674" fill="black" fill-opacity="0" transform="translate(51.416 72.7238) scale(4.16667)"/>
<path d="M51.7165 72.7238C51.5668 73.3976 51.7115 74.1412 51.416 74.8555C51.7478 74.5957 52.1982 74.3101 52.5215 73.9588C52.5179 73.9777 52.0723 74.7519 52.3693 74.6743C52.661 74.5036 52.7944 74.2172 53.0813 74.0557C53.13 74.3607 52.8365 74.5213 52.8263 74.8202C53.3708 74.8154 53.4307 74.5055 53.8292 74.332C53.8418 74.6054 53.5623 74.9339 53.5337 75.2238C53.9743 75.0233 54.3237 74.6544 54.7152 74.4343C54.8829 74.5048 54.3928 75.0762 54.4461 75.196C55.0041 74.9856 55.4414 74.6196 56.0597 74.5286C56.0886 74.9469 55.4853 75.1054 55.3952 75.4775C55.9459 75.1729 56.6103 74.8887 57.1462 74.5586C56.9976 74.9048 56.6435 75.152 56.5159 75.5159C56.9683 75.2793 57.3287 74.9619 57.7966 74.7572C57.8414 74.7765 57.3255 75.2817 57.3638 75.3166C57.7739 75.1605 58.2972 74.7754 58.7889 74.6528C58.6879 75.0253 58.291 75.2175 58.1943 75.5947C58.7504 75.5912 59.0912 75.1078 59.6133 75.0079C59.7197 75.0067 59.1824 75.6093 59.2748 75.6863C59.7696 75.4088 60.1533 75.1466 60.6564 74.745C60.5674 75.0249 60.2875 75.4713 60.2416 75.7905C60.6073 75.619 61.0591 75.1964 61.4572 75.0718C61.489 75.132 61.3552 75.6587 61.3995 75.6697C61.8278 75.5556 62.0414 75.2477 62.4042 75.0669C62.4627 75.0937 62.0704 75.7226 62.0622 75.7966C62.6052 75.6046 63.0131 75.2777 63.5981 75.1498C63.4593 75.4145 63.0363 75.8225 63.0295 76.1057C64.2591 75.7291 65.4932 74.9524 66.5391 74.093C65.7419 73.0483 64.1815 72.975 62.6637 73.1219" fill="#D07B31"/>
<rect width="1.90387" height="1.14941" fill="black" fill-opacity="0" transform="translate(64.3223 71.9275) scale(4.16667)"/>
<path d="M64.8104 74.6147C64.8378 74.7969 64.3909 75.4774 64.3223 75.6845C64.7579 75.7263 65.4539 75.4794 65.8462 75.3043C65.7997 75.5313 65.1107 75.9488 65.2488 76.1963C65.7152 76.1533 66.0029 75.75 66.4084 75.5684C66.2906 75.9257 65.9141 76.127 65.8143 76.4979C66.2832 76.3305 66.6444 75.9411 67.1369 75.75C67.2625 75.8456 66.4358 76.3104 66.6644 76.4462C67.1837 76.2011 67.6087 75.8244 68.1124 75.5757C68.1733 75.9196 67.6275 76.0607 67.6383 76.3633C68.1819 76.2747 68.5399 75.8205 69.0344 75.7522C69.1193 76.0546 68.5329 76.2202 68.6647 76.5672C69.028 76.3217 69.5787 75.9786 70.0263 75.8544C69.975 76.1057 69.4836 76.3009 69.5974 76.5822C76.0657 77.5472 68.9282 73.0405 67.0643 71.9275" fill="#D07B31"/>
<rect width="2.15588" height="4.21446" fill="black" fill-opacity="0" transform="translate(62.5898 54.8083) scale(4.16667)"/>
<path d="M69.8553 54.8083C67.167 56.4526 65.6307 58.4086 63.3503 60.4125C63.4996 60.4516 63.7121 60.0755 63.8478 60.0479C63.7963 60.4808 63.2988 60.7745 63.1608 61.202C63.5382 60.9123 63.7386 60.7429 64.198 60.615C63.3765 61.5186 62.8176 62.6334 62.5898 63.8051C62.9658 63.3213 63.4439 62.9045 63.8311 62.4211C63.1253 63.5179 62.7522 64.7484 62.8119 65.9975C63.0357 65.5338 63.3204 65.0684 63.5687 64.6177C63.2108 65.6349 63.1233 66.6405 62.937 67.6942C63.1716 67.2112 63.5581 66.7207 63.7889 66.2906C63.3226 67.4672 63.2317 68.5378 63.3036 69.791C63.4497 69.2428 63.6845 68.7393 63.8634 68.2038C63.6372 68.7701 63.6522 69.6996 63.5631 70.4556C63.6069 70.4325 63.968 69.8484 63.9612 69.8415C64.4725 70.8162 65.3562 71.4642 65.9989 72.3686C67.1788 67.2816 65.9707 62.3117 71.5727 59.1877" fill="#D07B31"/>
<rect width="2.81785" height="1.95827" fill="black" fill-opacity="0" transform="translate(64.9824 51.823) scale(4.16667)"/>
<path d="M73.8259 51.9225C72.1764 52.5312 70.4942 53.3407 69.077 54.325C69.4161 54.4117 69.7173 54.2656 70.0302 54.3396C69.0537 54.6863 67.7584 55.2764 66.6705 55.6696C66.9037 55.6477 67.38 55.5289 67.6406 55.5378C66.6782 56.0741 65.889 56.7568 64.9824 57.3705C65.3945 57.1561 66.1432 56.9191 66.5433 56.7448C65.8433 57.2426 65.5732 58.0775 65.0725 58.6724C65.1437 58.8791 65.666 59.7561 65.8671 59.9825C68.3769 59.2148 79.7148 55.2125 75.973 51.823" fill="#D07B31"/>
<rect width="2.15387" height="3.60665" fill="black" fill-opacity="0" transform="translate(8.56836 40.6757) scale(4.16667)"/>
<path d="M8.89 40.6757C9.35997 41.8161 10.2556 42.7853 11.4118 43.4067C11.1966 43.7185 10.7505 43.7633 10.4421 43.9623C10.8214 44.2213 11.3377 44.2155 11.7308 44.4554C11.602 44.7349 11.0468 44.7128 10.9466 44.9772C11.2676 45.3231 11.7967 45.2386 12.1341 45.5524C11.879 45.7247 11.3529 45.6827 11.1568 45.8902C11.4431 46.3406 11.9195 46.1841 12.2599 46.5482C12.2721 46.7665 11.6669 46.6404 11.631 46.9162C12.0662 47.2118 12.6332 47.3196 13.0906 47.5679C13.0527 47.9443 12.5953 47.8652 12.5797 48.2203C12.9505 48.4804 13.4716 48.4127 13.7896 48.7654C13.6299 49.0623 13.2122 48.9046 13.0285 49.2372C13.3677 49.5133 13.771 49.3981 14.1348 49.6235C14.0557 49.9794 13.5952 49.994 13.4255 50.3125C13.8864 50.516 14.4051 50.5117 14.7731 50.7211C14.6265 51.0464 14.1492 50.969 14.0807 51.3097C14.4457 51.5075 14.8597 51.2785 15.2115 51.4548C15.0618 51.799 14.6904 52.0241 14.5996 52.3904C15.0274 52.5098 15.3535 52.4038 15.7504 52.6395C15.7184 52.9316 15.2129 52.9285 15.1981 53.1788C15.4689 53.3226 16.061 53.2366 16.3907 53.3013C16.2962 53.643 15.8314 53.6677 15.5954 53.927C16.079 54.0905 16.5138 53.8724 16.9872 53.9456C17.0497 54.0844 16.2303 54.3923 16.1465 54.522C16.5763 54.5269 17.1533 54.4803 17.5428 54.6554C13.59 58.596 9.38533 50.3487 8.56836 47.6423" fill="#FFF0E2"/>
<rect width="2.75536" height="3.07096" fill="black" fill-opacity="0" transform="translate(15.1172 55.0077) scale(4.16667)"/>
<path d="M15.1172 55.0077C16.0422 55.0466 17.1005 55.3916 18.0239 55.5258C17.7895 55.8057 17.3988 56.2131 17.1355 56.4829C17.6495 56.4202 17.9762 56.2818 18.4294 56.3033C18.2469 56.7401 17.9167 56.9807 18.0105 57.4476C18.2421 57.5587 18.5584 57.2182 18.7558 57.5257C18.7141 57.8709 18.4356 58.0308 18.3799 58.364C18.7109 58.4526 19.0533 58.3589 19.3883 58.4268C19.2725 58.6966 18.992 58.9001 18.888 59.1855C19.2497 59.2143 19.5876 59.0752 19.9463 59.1212C20.0136 59.3685 19.6944 59.5116 19.7329 59.7494C20.1444 59.8177 20.5702 59.704 20.9877 59.7187C20.9855 59.9028 20.4349 60.1693 20.3285 60.372C20.7308 60.6016 21.2171 60.3961 21.6511 60.5175C21.6426 60.6501 21.1227 61.1773 21.0694 61.4746C21.5685 61.6905 22.0914 61.4422 22.5951 61.6068C22.6696 62.0109 21.9927 62.1435 22.0277 62.5711C22.4793 62.4878 23.0471 62.3551 23.5578 62.2466C23.5696 62.6828 22.9269 62.8417 23.001 63.3626C23.3773 63.4224 24.0851 63.1685 24.4033 63.2966C24.2442 63.7561 23.8764 64.1051 23.7177 64.5668C24.2045 64.6949 24.608 64.2774 25.0825 64.3811C25.1504 64.6979 24.4902 65.0938 24.6623 65.3575C25.0482 65.2977 25.8067 65.1799 26.2571 65.188C26.4072 65.4473 25.7579 65.8052 25.8983 65.9556C26.165 66.1267 26.296 65.7659 26.5979 65.8687C26.0446 71.7324 18.0207 62.4929 17.049 61.477" fill="#FFF0E2"/>
<rect width="3.73817" height="1.5707" fill="black" fill-opacity="0" transform="translate(25.2051 66.8048) scale(4.16667)"/>
<path d="M25.2051 67.2497C25.6032 67.0616 26.7675 66.9015 27.4138 66.8048C27.4254 66.939 27.1732 67.7532 27.1381 67.9301C27.6474 67.6587 28.1152 67.4244 28.6183 67.0119C28.5442 67.4124 28.354 67.7128 28.3484 68.1318C28.4795 68.0619 29.2226 67.4976 29.367 67.4864C29.4169 67.6753 29.1104 67.9672 29.3053 68.1522C29.7128 68.1176 29.9348 67.9058 30.3439 67.7791C30.4028 68.0436 30.1296 68.2818 30.1698 68.5469C30.5571 68.3993 30.9596 68.148 31.296 67.9676C31.3627 68.1387 31.1365 68.5631 31.2195 68.7996C31.5975 68.6723 31.8508 68.3547 32.2725 68.2883C32.2288 68.6087 31.967 68.9498 31.989 69.2745C32.2986 69.2374 32.5332 68.9202 32.8223 68.9048C32.9653 69.1981 32.7431 69.4758 32.772 69.8023C33.1386 69.7806 33.4389 69.4249 33.7858 69.281C33.9254 69.6319 33.7054 69.9341 33.8236 70.2969C34.2404 70.0956 34.4139 69.7849 34.836 69.6546C34.8799 69.9503 34.632 70.2634 34.7879 70.5429C34.9298 70.4777 35.4988 70.1017 35.7001 70.0733C35.8139 70.3034 35.629 70.3948 35.8369 70.6412C36.1527 70.5802 36.4234 70.3798 36.6838 70.273C36.8 70.5717 36.6071 70.8159 36.7221 71.0906C37.0551 70.9175 37.3222 70.655 37.6553 70.47C37.7036 70.7606 37.4552 71.0278 37.4921 71.3174C37.8721 71.2357 38.2404 70.9149 38.6156 70.7738C38.8484 70.998 38.5812 71.3062 38.7583 71.5081C39.19 71.3737 39.4539 71.0614 39.8794 70.8682C40.0724 70.9295 39.8205 71.662 39.8588 71.8008C40.1449 71.7139 40.3539 71.2179 40.6263 71.0598C41.9847 74.5581 33.9785 73.3416 32.6109 72.027" fill="#FFF0E2"/>
<rect width="2.46667" height="0.905443" fill="black" fill-opacity="0" transform="translate(40.3379 71.8712) scale(4.16667)"/>
<path d="M40.3379 72.4253C40.7512 72.3631 41.1978 72.0001 41.6087 71.8712C41.6236 72.0941 41.4154 72.5749 41.3234 72.7808C41.6524 72.6781 42.116 72.2656 42.4588 72.2478C42.4424 72.3436 42.4081 72.4334 42.3544 72.5182C42.5231 72.4811 42.8784 72.3941 43.0803 72.3169C43.0843 72.3493 42.8846 72.9361 42.8163 72.9079C43.2013 72.8964 43.498 72.431 43.8665 72.4626C43.9148 72.7881 43.6301 73.0287 43.6956 73.3725C44.1636 73.259 44.4189 72.9507 44.8508 72.7977C45.1561 73.0826 44.5801 73.4677 44.7298 73.7357C45.1257 73.65 45.3226 73.3074 45.6564 73.1631C45.9952 73.7333 45.728 73.4345 46.2725 73.4325C46.3404 73.6092 45.9089 73.908 46.0455 74.0768C46.4312 73.9057 46.8645 73.5725 47.2909 73.5375C47.3542 73.6116 47.2324 74.002 47.3698 74.0229C47.6954 73.9357 47.9372 73.7414 48.2588 73.6566C48.357 73.9106 48.0783 74.1794 48.1211 74.3999C48.5669 74.2248 48.961 74.0645 49.3593 73.9364C49.649 74.197 49.2517 74.5355 49.4559 74.8061C49.8842 74.9836 50.2561 74.8829 50.6157 75.1277C49.0177 76.1027 44.1308 75.6582 43.0212 74.1172" fill="#FFF0E2"/>
<rect width="4.10517" height="1.34741" fill="black" fill-opacity="0" transform="translate(27.8887 70.8503) scale(4.16667)"/>
<path d="M27.8887 72.7241C28.5882 71.8288 29.6192 71.1561 30.7079 70.8503C30.5971 71.296 30.6045 71.9415 30.4927 72.4063C30.8553 72.0818 31.784 71.6426 32.1897 71.2374C32.2606 71.5378 32.0298 72.1211 31.9947 72.4391C32.4762 72.4503 32.5998 71.8203 33.0375 71.7911C33.2409 72.1738 32.6877 72.4677 32.8178 72.7906C33.2129 72.3959 33.6659 72.0228 34.1222 71.6896C34.0653 72.1122 33.8087 72.5046 33.8071 72.9673C34.3106 72.6619 34.8794 72.3096 35.3528 71.9658C35.4512 72.2737 34.9457 72.5859 35.0507 72.8224C35.5225 72.6906 35.7647 72.2652 36.2061 72.1422C36.2263 72.4912 35.8477 72.7969 35.8559 73.1785C36.3964 73.053 36.717 72.6207 37.2886 72.5398C37.4102 72.5968 36.8963 73.227 36.9761 73.2837C37.4805 73.2225 37.9297 72.7399 38.4895 72.6404C38.5887 72.9726 38.1122 73.3512 38.2463 73.6339C38.4795 73.5032 38.9723 73.0089 39.2921 72.9055C39.2625 73.3236 38.9902 73.6185 39.0667 73.9889C39.2671 73.9538 39.7445 73.4712 39.8879 73.4963C40.1382 73.5922 39.7118 74.2394 39.7483 74.3883C40.0617 74.2305 40.5084 73.6929 40.7567 73.4534C40.9907 73.8976 40.6152 74.1832 40.7122 74.6034C41.2231 74.5333 41.3595 73.9826 41.8594 73.8324C42.4096 74.0618 41.6699 74.6227 41.9227 74.8101C42.2701 74.4492 42.5626 73.9923 42.8818 73.6455C43.0331 74.0517 42.6322 74.3359 42.7243 74.7033C43.1947 74.4982 43.3546 73.9507 43.8545 73.8297C44.0927 73.9732 43.5151 74.5665 43.6882 74.7834C44.0146 74.5418 44.2826 74.0486 44.6683 73.8995C45.7518 75.9061 43.9543 77.199 41.8414 76.0082" fill="#FEE4D9"/>
<rect width="1.46292" height="0.610038" fill="black" fill-opacity="0" transform="translate(43.5586 74.9121) scale(4.16667)"/>
<path d="M43.5586 76.2071C44.2781 75.6339 45.2498 75.2056 46.1123 74.9121C46.1516 75.2299 45.8909 75.7565 45.8168 76.0891C46.305 75.945 46.8135 75.553 47.2926 75.3467C47.4382 75.5621 46.7923 76.144 47.0153 76.2689C47.5823 76.095 47.9701 75.7241 48.5327 75.6361C48.5191 75.628 48.0136 76.2399 48.0781 76.3714C48.5089 76.2121 48.8637 75.8305 49.3247 75.7699C49.4782 76.2168 49.3844 76.8139 49.6541 77.2118C48.3412 77.7531 46.8321 77.2369 45.3832 77.1031" fill="#FEE4D9"/>
<rect width="4.37622" height="3.75302" fill="black" fill-opacity="0" transform="translate(11.1445 57.2195) scale(4.16667)"/>
<path d="M11.1445 57.5956C12.4908 57.2032 13.9133 57.0855 15.2304 57.3982C14.871 57.8233 14.6518 58.5736 14.102 59.0755C14.7836 58.8057 15.675 58.7398 16.3456 58.4899C15.8547 58.902 15.4442 59.4326 14.9644 59.8363C15.6215 59.5394 16.6647 59.3987 17.3658 59.1038C16.8909 59.571 16.5211 60.189 16.0276 60.6635C16.6834 60.3808 17.6871 60.2703 18.3126 60.0123C18.0053 60.3311 17.6473 60.8812 17.3003 61.2499C17.8103 61.1122 18.4899 61.0409 18.9802 60.9102C18.6775 61.2055 18.2806 61.7888 17.942 62.1314C18.5589 61.9098 19.229 61.9554 19.7896 61.8231C19.3178 62.241 19.0363 62.812 18.6374 63.2336C19.2405 62.9847 19.8972 62.8975 20.4806 62.6867C20.0399 63.1215 19.6738 63.7423 19.2298 64.1639C19.7077 63.99 20.6417 63.9446 21.0795 63.7997C20.7076 64.2091 20.4171 64.8445 20.029 65.2635C20.6119 65.1112 21.4465 65.029 22.0426 64.8143C21.811 65.0719 21.5671 65.4473 21.0991 65.8063C21.5475 65.6259 22.3052 65.5225 22.7991 65.3066C22.4288 65.6717 22.1093 66.3549 21.8657 66.7119C22.5328 66.4573 23.2597 66.5149 23.7658 66.3892C23.3783 66.7974 23.0056 67.4365 22.646 67.8268C23.308 67.4764 24.3484 67.3479 25.0025 67.0741C24.7038 67.4845 24.4129 68.1597 24.0641 68.6224C24.3889 68.4513 25.0869 68.2188 25.5397 67.912C25.3175 68.1749 24.9711 68.7728 24.7092 69.1252C25.2017 68.9649 25.6286 68.6684 26.1636 68.5666C26.0774 68.8599 25.8633 69.441 25.7823 69.8192C26.2111 69.6484 27.2998 69.4135 27.6536 69.2223C27.5877 69.5426 27.2212 70.1016 27.0551 70.3963C27.4711 70.2487 27.6704 69.8423 28.0775 69.6768C28.1855 70.0943 27.551 70.3426 27.6091 70.7176C28.1024 70.7879 28.3336 70.1444 28.8106 70.1488C28.6085 70.5376 28.253 70.8708 28.1547 71.2826C28.5291 71.0698 28.9965 70.7366 29.3788 70.567C29.2033 78.2283 14.8694 64.4142 13.3986 61.9747" fill="#FEE4D9"/>
<rect width="1.8544" height="4.34312" fill="black" fill-opacity="0" transform="translate(6.5293 40.4764) scale(4.16667)"/>
<path d="M7.28038 40.4764C7.69605 40.8858 8.22293 41.2247 8.76059 41.4942C8.62762 41.794 8.05562 42.0304 7.76393 42.1777C8.19158 42.3692 8.71347 42.4448 9.13733 42.5821C8.76019 42.9074 8.28961 43.0089 8.06421 43.4457C8.15705 43.6287 8.84564 43.6168 8.86401 43.7755C8.70528 44.1156 8.24868 44.2062 8.09076 44.5718C8.41599 44.7753 8.86321 44.8104 9.24873 44.9707C9.15869 45.2744 8.62722 45.3585 8.57651 45.5593C9.09281 45.8088 9.48013 45.8139 9.92375 46.123C9.8395 46.4159 9.40246 46.3616 9.39388 46.7047C9.71472 46.9372 10.1464 46.8999 10.4638 47.1399C10.2662 47.4165 9.87044 47.3934 9.68716 47.6446C10.1394 47.7919 10.5676 47.8635 10.9747 48.0661C10.9366 48.3234 10.4654 48.2009 10.4077 48.4896C10.4732 48.6126 11.3884 49.0784 11.5643 49.2399C11.4894 49.807 10.8795 49.4736 10.6712 49.6801C10.8531 49.8433 11.8833 50.1986 12.0762 50.3101C11.8638 50.4724 11.1474 50.5815 11.0278 50.7773C11.4535 51.0175 12.0315 51.0961 12.4471 51.3412C12.4954 51.6817 11.6064 51.858 11.6571 52.2129C12.1928 52.282 12.9337 52.57 13.3729 52.7091C12.876 52.8976 12.3092 53.3392 11.838 53.5245C12.4439 53.6001 13.3464 54.0296 13.9152 54.1078C13.4839 54.316 12.9315 54.7651 12.4651 54.9709C12.8243 55.1606 13.6582 55.3714 14.0146 55.506C13.8962 55.7169 13.0722 55.9271 13.073 56.082C13.443 56.2255 14.0166 56.2591 14.256 56.5917C13.8267 57.7744 12.965 58.4591 11.5854 58.5728C10.4191 54.1102 7.08532 49.9736 6.5293 45.4533" fill="#FEE4D9"/>
<rect width="2.25934" height="1.83188" fill="black" fill-opacity="0" transform="translate(28.8613 33.1115) scale(4.16667)"/>
<path d="M29.0696 33.1115C29.0668 33.6489 29.0781 34.1461 28.8613 34.6783C29.2119 34.6481 29.7913 34.4075 30.1052 34.2194C30.0335 34.6007 29.5344 34.8682 29.631 35.2777C29.8947 35.468 30.3353 34.9207 30.6546 35.0205C30.7532 35.4246 30.3112 35.7232 30.3477 36.1111C30.7502 35.7959 31.3679 35.5213 31.8132 35.2616C31.649 35.709 31.4294 36.2741 31.2535 36.6959C31.6017 36.5495 32.4247 36.3787 32.8903 36.2352C32.595 36.7654 32.489 37.6799 32.2959 38.0425C32.703 37.7685 33.3409 37.4898 33.7138 37.2303C33.4369 37.7685 33.3535 38.4416 33.0602 38.9617C33.4415 38.7231 34.3845 38.4223 34.8235 38.1193C34.5318 38.6988 34.3735 39.5851 34.2012 39.9879C34.5318 39.6772 35.2228 39.2473 35.557 38.9501C35.3492 39.4431 35.2703 40.1097 35.0267 40.582C35.4286 40.3418 36.0152 39.9605 36.4612 39.6117C36.2803 39.9844 36.0697 40.3722 35.904 40.7443C36.2921 40.4948 36.4902 40.1243 36.8503 39.8626C36.9923 40.0805 36.4137 40.432 36.5213 40.6298C37.6374 40.3079 37.6889 39.9212 38.2752 39.1698C36.6679 37.2731 34.765 35.3482 32.3965 34.4053" fill="#FFF0E2"/>
<rect width="2.43979" height="1.43444" fill="black" fill-opacity="0" transform="translate(29.8516 32.896) scale(4.16667)"/>
<path d="M40.0174 37.7894C39.3128 38.3446 38.4018 38.8114 37.2666 38.8728C37.2296 38.5112 37.6936 38.2475 37.8324 37.9575C37.4137 38.1105 37.1017 38.4074 36.708 38.5809C36.8096 38.1166 37.1945 37.9046 37.3818 37.5168C36.8078 37.4925 36.3043 37.7679 35.744 37.7343C35.7596 37.6388 36.1597 37.0135 36.1675 37.0188C35.8574 37.0863 35.3391 37.3731 35.0171 37.3249C35.0794 37.0944 35.3477 36.8599 35.3657 36.6317C35.0367 36.6734 34.7777 36.8901 34.4533 36.9479C34.4252 36.654 34.7917 36.471 34.9111 36.22C34.4373 36.1989 33.8126 36.3692 33.4059 36.3737C33.4035 36.2273 33.7553 35.6995 33.721 35.6148C33.3676 35.6497 33.0338 35.9207 32.6782 35.9336C32.8561 35.6093 33.1278 35.3507 33.3299 35.0434C33.0116 34.9786 32.6087 35.39 32.3063 35.4656C32.2126 35.0534 32.6541 34.7901 32.6782 34.4092C32.1783 34.2149 31.8055 34.6458 31.3408 34.5596C31.3501 34.1297 31.7253 33.807 31.5342 33.334C31.326 33.3946 30.5917 33.7458 30.397 33.7473C30.3369 33.7069 30.8265 33.2142 30.7504 33.1451C30.5717 33.1208 30.0181 33.4771 29.8516 33.5614C32.3117 31.179 38.2738 35.8175 40.0174 37.6899" fill="#FEE4D9"/>
<rect width="1.55289" height="1.71306" fill="black" fill-opacity="0" transform="translate(81.5996 50.2832) scale(4.16667)"/>
<path d="M81.5996 50.2832C81.5996 50.2832 85.2293 50.9713 86.7991 52.3052C88.3682 53.6395 88.2372 56.1862 87.7147 57.2777C87.1914 58.369 83.1695 52.9514 81.5996 50.2832Z" fill="#CF782C"/>
<rect width="3.604" height="1.16002" fill="black" fill-opacity="0" transform="translate(58.8809 79.2982) scale(4.16667)"/>
<path d="M60.8642 83.7352C65.2271 84.6242 69.515 83.7883 73.8976 83.4472C73.8594 83.3446 73.8169 83.2451 73.7802 83.1423C73.2012 81.6943 71.9542 80.4563 70.3841 79.2982C68.5523 79.4409 64.9796 79.7609 63.6124 80.1831C61.9599 80.6935 60.1193 80.2062 58.8809 81.096C59.1001 82.4054 59.4572 83.5605 60.8642 83.7352Z" fill="#FFF7EE"/>
<rect width="3.99461" height="1.44789" fill="black" fill-opacity="0" transform="translate(58.0098 81.0959) scale(4.16667)"/>
<path d="M60.8634 83.7352C59.4564 83.5605 59.0993 82.4054 58.88 81.0959C58.7155 81.2138 58.5608 81.3545 58.4192 81.5264C57.2134 82.9975 58.774 87.0834 61.7484 87.128C64.7238 87.1728 66.3272 85.3936 68.8891 85.5481C70.6328 85.6541 71.8463 85.4684 74.654 85.2621C74.3787 84.6749 74.1287 84.0682 73.8967 83.4472C69.5142 83.7883 65.2263 84.6242 60.8634 83.7352Z" fill="#FEEADD"/>
<rect width="4.16916" height="4.80773" fill="black" fill-opacity="0" transform="translate(65.6211 63.8179) scale(4.16667)"/>
<path d="M82.483 80.6599C78.9084 76.0737 82.2685 72.3469 81.2242 67.8438C80.5056 64.9925 75.1536 62.948 72.1511 64.1874C67.9368 65.8899 66.0414 69.6557 65.6211 73.3531C66.6709 74.5694 67.8226 75.4022 68.5963 75.9397C68.7344 76.0352 68.8662 76.1339 68.9936 76.2338C69.1829 74.4747 69.1687 72.261 71.0755 71.6499C75.2199 70.3223 78.2068 75.0656 76.3639 78.06C75.3914 79.6163 73.1313 79.8009 70.8292 79.639C72.1874 80.7 73.2573 81.8353 73.7798 83.1422C73.8523 83.3449 73.9331 83.5407 74.0098 83.7397C77.8698 84.0827 84.9488 83.774 82.483 80.6599Z" fill="#DC8F4F"/>
<rect width="6.22723" height="6.32918" fill="black" fill-opacity="0" transform="translate(64.1719 58.8905) scale(4.16667)"/>
<path d="M89.7185 72.4033C90.447 69.9633 90.3316 67.4757 88.0941 65.2423C84.6671 61.595 79.3796 59.0983 74.0443 58.8975C66.8835 58.6388 63.8376 65.5691 64.2008 71.2613C64.6109 72.0605 65.1042 72.7525 65.6225 73.3532C66.0428 69.6558 67.9382 65.8899 72.1525 64.1874C75.155 62.9481 80.507 64.9926 81.2256 67.8438C82.2699 72.3469 78.9098 76.0737 82.4844 80.6599C84.9502 83.7741 77.8712 84.0828 74.0112 83.7397C74.2128 84.2578 74.4243 84.7679 74.6559 85.2621C75.9732 85.1654 77.2731 85.0517 78.4321 84.9364C82.0617 84.5762 86.9897 84.8624 85.5532 82.4155C84.1175 79.9695 82.4055 79.4328 84.2429 77.7161C85.412 76.6238 87.8781 74.904 89.7185 72.4033Z" fill="#D78640"/>
<rect width="6.92381" height="5.22372" fill="black" fill-opacity="0" transform="translate(63.1074 52.0746) scale(4.16667)"/>
<path d="M65.6889 63.8904C65.8476 63.5862 66.0183 63.2897 66.2023 63.0031C66.0253 63.7113 65.9364 64.462 65.9356 65.2474C65.8456 64.7973 65.7667 64.3451 65.6889 63.8904ZM91.9027 67.3225C92.6826 61.9098 84.9898 47.8223 69.7649 53.3287C69.7649 53.3287 64.4828 57.6045 63.3004 64.426C63.1281 65.4226 63.0786 66.3424 63.1225 67.1942C63.0485 68.4059 63.2677 69.6086 63.9203 70.6654C64.0086 70.87 64.1018 71.0694 64.2005 71.2613C64.1961 71.1949 64.1945 71.1276 64.1911 71.0613C64.4109 71.3526 64.6656 71.6318 64.9631 71.8929C64.7525 71.1596 64.7369 70.3296 64.4975 69.619C64.801 69.9526 65.0727 70.3245 65.3812 70.6662C65.1632 69.9609 65.0326 69.1858 64.7717 68.4937C64.8629 68.6256 65.2798 68.8739 65.2798 68.8092C65.3179 68.1969 65.0278 67.6329 65.0879 67.0813C65.4143 67.3653 65.7376 67.7601 66.0756 68.0569C65.6849 67.3992 65.5589 66.6101 65.1726 65.9674C65.4646 66.2597 65.7232 66.5009 66.0334 66.6975C66.0574 66.8699 66.0842 67.0438 66.1165 67.2188C66.1528 67.085 66.1908 66.9466 66.2289 66.8059C66.267 66.8264 66.301 66.8491 66.3405 66.8685C66.3169 66.7925 66.2968 66.7153 66.274 66.6389C66.5517 65.6182 66.8598 64.4728 67.1 63.5633C67.192 64.1363 67.3172 64.7778 67.3871 65.3699C67.4408 64.6412 67.7738 63.6963 67.8519 62.9542C68.0483 63.4928 68.3212 64.0333 68.5033 64.5877C68.4782 63.6716 68.8383 62.5094 68.8968 61.7333C69.0841 62.2734 69.3738 62.8853 69.5645 63.4524C69.5513 62.62 69.8827 61.6952 69.9338 60.913C70.2383 61.2282 70.5378 61.8312 70.7468 62.167C70.8895 61.6408 70.9574 61.0895 71.1056 60.6434C71.1968 60.99 71.4829 61.6076 71.6744 61.9615C71.8051 61.2788 72.3104 60.6345 72.4913 60.1661C72.6976 60.6675 72.9789 61.1828 73.1705 61.7201C73.3696 61.1967 73.8288 60.5771 73.9825 60.0686C74.0672 60.5362 74.1438 61.0308 74.2149 61.5213C74.4597 61.0089 75.0135 60.2772 75.2066 59.874C75.1375 60.507 75.2237 61.2908 75.1421 61.9668C75.437 61.4329 75.9786 60.8929 76.2801 60.3643C76.3893 60.931 76.8142 61.7456 76.8541 62.3829C77.0202 61.8188 77.4045 61.2105 77.5529 60.6296C77.6098 61.216 77.8757 61.9145 77.9204 62.5152C78.133 61.9426 78.5549 61.3289 78.75 60.6967C78.8969 61.2707 79.3695 62.0497 79.4677 62.7499C79.6015 62.1095 79.9155 61.4627 80.0219 60.8015C80.1186 61.2799 80.4286 61.9546 80.5203 62.5229C80.6516 61.9353 81.0475 61.278 81.1613 60.7109C81.3524 61.4013 81.8803 62.1755 82.1237 62.95C82.0917 63.1454 82.0614 63.3408 82.0356 63.5353C82.2882 63.2723 82.4615 62.8158 82.6509 62.5116C82.5184 63.071 82.4559 63.6922 82.4145 64.2192C82.7258 63.7877 83.065 63.3201 83.3934 62.8953C83.2257 63.7241 83.2609 64.6771 83.0229 65.5342C83.4627 64.8858 84.082 64.2792 84.5109 63.6529C84.2342 64.5857 84.1022 65.6737 83.6288 66.6243C84.0375 65.9463 84.8369 65.2484 85.2837 64.6702C85.116 65.3745 85.1302 66.3051 84.8369 67.1154C85.2775 66.5542 85.9288 65.9876 86.3289 65.4497C86.1121 66.24 86.0809 67.2165 85.7018 68.0812C86.0863 67.4729 86.612 66.9759 87.0462 66.4111C86.9488 67.3106 86.9987 68.3974 86.4615 69.4301C86.9544 68.734 87.6741 68.0946 88.1717 67.388C88.1008 68.5076 87.6991 69.8415 87.1079 70.9498C87.5384 70.318 88.1483 69.7047 88.5913 69.0843C88.334 70.2475 88.001 71.4772 87.384 72.5733C87.8013 71.9002 88.3603 71.2421 88.766 70.5639C88.3893 71.5686 88.2341 72.8536 87.9526 73.8401C88.7636 73.1569 89.4414 72.365 89.9444 71.507C89.8827 71.806 89.8072 72.1049 89.7182 72.4033C90.7703 70.9741 91.6188 69.291 91.9027 67.3225Z" fill="#CF782C"/>
<rect width="1.74193" height="3.02552" fill="black" fill-opacity="0" transform="translate(76.6875 63.5559) scale(4.16667)"/>
<path d="M77.3907 63.5559C76.7871 64.6313 76.5589 65.9208 76.7574 66.9967C77.1984 66.5025 77.9192 66.0171 78.3558 65.511C78.0306 66.1805 77.9876 66.9586 77.7499 67.6248C78.2428 67.1957 78.7858 66.8301 79.2828 66.4158C78.8901 67.0885 78.6537 67.7813 78.2096 68.4394C78.719 68.0326 79.6334 67.6181 80.0676 67.2701C79.4672 68.0107 79.1692 68.9026 78.7263 69.6395C79.2496 69.3702 79.7955 69.0831 80.2876 68.789C79.7749 69.437 79.3536 70.3307 78.72 70.9691C79.1528 70.7008 79.9644 70.4482 80.4845 70.1779C79.8622 70.7879 79.694 71.4609 79.2788 72.0574C79.5593 72.0087 80.2341 71.7525 80.5675 71.7505C80.1129 72.2698 79.7663 73.3014 79.1654 73.8728C79.518 73.7609 80.2054 73.6442 80.658 73.5127C79.8679 74.0816 79.5761 74.9079 78.9645 75.5259C79.2129 75.6619 79.5818 75.0952 79.9149 75.1978C80.1145 75.4218 80.2365 76.057 80.5675 76.1622C84.9834 73.5039 85.2032 67.235 80.4365 64.665" fill="#D78640"/>
<rect width="1.84555" height="2.78408" fill="black" fill-opacity="0" transform="translate(75.8242 72.1975) scale(4.16667)"/>
<path d="M80.2373 74.0484C79.7382 74.7815 79.5042 75.7388 78.9837 76.5025C79.1216 76.684 79.7971 76.4332 80.0029 76.4732C79.9288 76.8576 79.2191 77.1475 79.0226 77.548C79.4628 77.7239 80.0887 77.6771 80.5048 77.8814C80.3367 78.2173 79.5389 78.2677 79.3389 78.5758C79.3357 78.5556 80.4058 78.7185 80.541 78.827C80.1261 79.1648 79.5 79.2828 79.1139 79.6557C79.7615 79.7891 80.3659 79.8911 81.0355 80.1095C80.5527 80.3911 80.0662 80.3741 79.6076 80.734C80.1604 80.8599 80.7813 80.836 81.314 81.0103C80.4974 81.1325 79.7096 81.5596 78.7203 81.619C79.2566 81.816 79.8032 82.2092 80.3078 82.3754C79.262 82.3573 78.2657 82.6141 77.2819 82.636C77.8628 82.6788 78.4023 82.7783 78.9949 82.9074C77.5456 82.8535 77.0159 83.1527 75.8242 83.4395C79.2426 84.17 82.8978 83.9168 83.4984 81.4228C83.6683 80.7174 82.3987 77.7333 82.3464 76.6718C82.2669 75.0298 82.9837 73.8459 82.1709 72.1975" fill="#D78640"/>
<rect width="2.91238" height="2.42516" fill="black" fill-opacity="0" transform="translate(64.9121 63.1569) scale(4.16667)"/>
<path d="M64.9121 71.8358C65.3719 72.3715 65.915 72.9186 66.4754 73.2617C65.9754 72.4013 66.0978 71.698 65.8648 70.8126C66.1693 70.8106 66.7008 71.3846 67.0038 71.5293C66.9066 71.139 66.8459 70.3341 66.8006 69.856C67.2638 70.3984 67.9887 70.808 68.4236 71.2851C68.032 70.2168 68.1413 68.9571 68.0987 68.0839C68.4477 68.6263 68.9281 69.0766 69.322 69.585C69.1379 68.7756 69.3687 67.9465 69.2922 67.184C69.5258 67.6209 69.8678 68.0484 70.1743 68.4396C70.1901 67.6475 70.6239 66.8309 70.7114 66.0329C70.9114 66.6963 71.2903 67.3114 71.5052 67.9663C71.6687 67.0086 72.2215 66.0364 72.4551 65.0856C72.5062 65.8432 72.8135 66.708 72.8604 67.4355C73.0365 66.5899 73.4693 65.6987 73.6456 64.8364C73.6097 65.6825 73.8758 66.6324 73.8836 67.4351C74.1108 66.6631 74.5674 65.8633 74.7645 65.0864C74.7211 65.8322 74.8505 66.6239 74.817 67.3672C75.0987 66.6933 75.5018 66.0082 75.7354 65.3024C75.5704 65.8633 75.5229 66.4701 75.3995 67.0133C81.6628 60.8762 68.1576 62.7433 66.6385 67.8684" fill="#D78640"/>
<rect width="2.88339" height="3.19568" fill="black" fill-opacity="0" transform="translate(66.502 68.3499) scale(4.16667)"/>
<path d="M77.1295 77.9427C77.6123 78.1243 78.0411 78.4743 78.5161 78.619C77.9225 77.7911 77.9639 77.4937 77.0351 76.7673C77.1052 76.6625 77.9311 76.2703 77.9327 76.3625C77.6161 75.7719 77.2871 76.1678 77.0469 75.9249C77.4041 75.2946 77.6083 74.5653 77.7794 73.8863C77.4859 74.0925 77.1731 74.4095 76.8392 74.6038C76.9091 73.9654 76.7238 73.2576 76.6709 72.5887C76.8486 71.692 76.9914 70.7536 77.3322 69.9366C76.837 70.3701 76.0414 70.7996 75.5471 71.3416C75.859 70.6091 75.9795 69.6711 76.3265 68.9152C75.9292 69.4051 75.1594 69.981 74.7854 70.4368C74.8693 69.7517 74.7509 69.0462 74.8913 68.3499C74.5019 68.9572 73.7351 69.5442 73.3514 70.2513C73.2332 69.7217 73.0359 69.1919 73.0209 68.6074C72.779 69.3322 72.1936 70.0296 72.0197 70.8805C71.8075 70.4036 71.3622 69.7246 71.2241 69.3334C70.9953 69.8184 70.9438 70.5416 70.8829 71.0544C70.7821 70.9506 70.342 70.1974 70.2594 70.2066C69.9242 70.483 70.474 70.9155 70.3251 71.2098C70.0591 71.2321 69.6051 70.7096 69.3306 70.5913C69.2675 71.163 69.4608 71.717 69.437 72.2752C68.9055 72.0092 68.7963 71.6475 68.2014 71.5157C68.3643 72.1252 68.4919 72.8007 68.6666 73.4159C68.2976 73.1084 67.6515 72.6562 67.3856 72.4156C67.8278 73.0995 68.0742 73.859 68.5578 74.5491C68.0922 74.2422 67.4944 73.9583 67.0604 73.6253C67.6593 74.2264 68.1121 74.9962 68.6879 75.598C68.0001 75.2646 67.1836 75.0402 66.502 74.6782C67.4012 75.5706 68.4286 76.1824 69.6273 76.7791C70.9036 77.9816 71.5042 79.2164 71.5042 79.2164C71.5042 79.2164 71.0628 79.2451 70.385 79.2982C70.5121 79.3923 70.6345 79.4878 70.7571 79.5832C70.6766 79.6031 70.5924 79.6221 70.5055 79.6398C71.141 80.2559 72.0594 80.9339 72.9271 81.2534C72.7598 81.139 72.7308 80.5877 72.7628 80.5075C73.3502 80.9564 73.9327 81.3279 74.6058 81.6652C74.35 81.2748 74.0044 80.927 73.6967 80.5557C74.226 80.8703 75.2325 81.2157 75.8649 81.6097C75.588 81.1919 75.1774 80.6769 74.8078 80.2778C75.3255 80.4886 76.2091 80.6964 76.8494 81.0318C76.5999 80.641 76.1916 80.2588 75.9472 79.9327C76.4579 80.127 77.2667 80.4258 77.8243 80.6082C77.4875 80.0526 77.2216 79.4543 76.7544 78.9454C77.1637 79.1687 77.6472 79.4466 78.0942 79.7038C77.7331 79.1659 77.4614 78.4814 77.1295 77.9427Z" fill="#E69758"/>
<rect width="2.39137" height="6.53049" fill="black" fill-opacity="0" transform="translate(82.0371 54.8436) scale(4.16667)"/>
<path d="M84.9157 54.8436C84.9157 54.8436 88.6069 56.2468 90.7236 61.1021C92.8408 65.9571 92.6747 71.1373 87.5469 75.095C87.5469 75.095 83.7514 77.8665 83.6078 78.8619C83.4643 79.8573 85.3843 82.054 85.3843 82.054C85.3843 82.054 83.9143 80.1836 83.0135 79.5312C82.1136 78.8793 81.4967 79.1406 82.7266 78.0775C83.9564 77.0138 88.2894 73.9709 89.5147 72.3668C90.7399 70.7626 92.3291 67.7849 90.9589 63.495C89.5887 59.2048 87.4199 56.4369 84.9157 54.8436Z" fill="#B25E27"/>
<rect width="3.35191" height="1.07048" fill="black" fill-opacity="0" transform="translate(60.6895 82.6898) scale(4.16667)"/>
<path d="M74.6558 85.2622C74.6558 85.2622 73.9133 85.7657 71.1888 85.6982C68.4646 85.6307 69.2972 85.5988 67.5834 85.9943C65.8696 86.3899 64.4962 87.3004 63.1128 87.1289C61.7284 86.9573 60.8424 86.7799 60.727 85.2796C60.612 83.7799 60.7176 83.0497 61.6703 82.7625C62.6229 82.4753 64.1029 83.1315 64.1029 83.1315C64.1029 83.1315 63.0635 82.867 62.082 83.3535C61.1005 83.8405 60.9813 85.2441 61.4555 85.9781C61.9293 86.7118 63.6197 87.0564 65.2091 86.3757C66.7983 85.6947 65.9414 85.3185 69.2021 85.1142C72.462 84.9107 74.6558 85.2622 74.6558 85.2622Z" fill="#EFD2C6"/>
<rect width="1.07506" height="1.49378" fill="black" fill-opacity="0" transform="translate(57.9727 80.9718) scale(4.16667)"/>
<path d="M61.5556 81.262C61.5556 81.262 59.3816 80.2496 58.2999 82.0069C57.2186 83.764 58.8711 87.8189 62.4521 87.1146L61.8679 86.569C61.8679 86.569 59.7276 87.0471 58.7605 84.5628C57.7926 82.0789 59.7943 80.8411 61.5556 81.262Z" fill="#EFD2C6"/>
<rect width="2.93852" height="0.775103" fill="black" fill-opacity="0" transform="translate(58.1387 79.2982) scale(4.16667)"/>
<path d="M58.1388 82.5278C58.1388 82.5278 58.0761 80.0881 61.2791 80.2826C62.2438 80.3414 63.1109 80.2899 63.8845 80.1892C65.68 79.9567 66.9667 79.4609 67.7763 79.4668C68.935 79.4757 70.3825 79.2982 70.3825 79.2982C70.3825 79.2982 65.7606 80.2305 63.9751 80.5492C62.1891 80.868 60.4797 80.6564 60.4797 80.6564C60.4797 80.6564 58.8036 80.7863 58.1388 82.5278Z" fill="#EFD2C6"/>
<rect width="2.71944" height="1.25081" fill="black" fill-opacity="0" transform="translate(74.6055 80.0504) scale(4.16667)"/>
<path d="M74.6542 85.2621C74.6542 85.2621 78.8522 84.8245 81.0071 84.8212C83.1611 84.818 86.9287 84.5425 85.6934 82.7682C84.458 80.9937 83.9317 80.0504 83.9317 80.0504C83.9317 80.0504 85.5982 82.2832 85.2201 83.1823C84.8417 84.081 84.7076 83.8615 83.1946 84.0119C81.6817 84.1619 77.8228 84.4941 77.8228 84.4941L74.6055 84.9734L74.6542 85.2621Z" fill="#B25E27"/>
<rect width="0.3311" height="0.101613" fill="black" fill-opacity="0" transform="translate(70.123 79.2164) scale(4.16667)"/>
<path d="M71.5026 79.2164L70.123 79.2847L70.504 79.6398L71.5026 79.2164Z" fill="#B25E27"/>
<rect width="4.16654" height="7.55967" fill="black" fill-opacity="0" transform="translate(26.5605 53.8568) scale(4.16667)"/>
<path d="M34.0211 84.8107C35.883 84.229 35.4903 81.6457 36.0779 79.5889C36.2741 78.903 37.4357 78.5102 37.8558 77.6058C38.499 76.4831 37.2247 75.0078 37.8685 73.8847C38.9604 72.3246 39.3523 70.9534 39.9677 69.363C41.3355 65.8915 43.332 62.4586 43.9211 58.7337C42.8398 56.567 41.0781 55.379 41.0781 55.379C35.4739 52.1979 32.9072 54.5164 31.8319 57.6353C30.7568 60.7541 33.3465 64.8094 32.2071 66.8622C31.0677 68.9156 30.3439 71.8793 30.5466 75.2546C30.7502 78.6304 29.0462 80.294 29.0462 80.294C29.0462 80.294 27.6337 80.789 26.5605 81.8869C27.661 85.7957 31.5424 85.7876 34.0211 84.8107Z" fill="#FFF7EE"/>
<rect width="4.6399" height="6.97493" fill="black" fill-opacity="0" transform="translate(25.416 58.7336) scale(4.16667)"/>
<path d="M43.924 58.7336C43.3348 62.4585 41.3383 65.8914 39.9705 69.363C39.3552 70.9533 38.9633 72.3245 37.8714 73.8846C37.2275 75.0078 38.5019 76.483 37.8586 77.6057C37.4386 78.5101 36.277 78.9029 36.0807 79.5888C35.4932 81.6456 35.8859 84.2289 34.024 84.8106C31.5453 85.7875 27.6639 85.7956 26.5634 81.8868C26.0713 82.3903 25.651 83.0208 25.4701 83.7882C24.8953 86.2304 28.9976 88.4326 33.0986 87.6265C37.1996 86.8192 36.8797 84.4988 37.2838 82.2227C37.6881 79.9469 39.3135 79.7219 39.3708 77.9277C39.4698 74.8481 41.1918 72.2004 42.3418 70.3248C43.4916 68.4493 44.6521 66.752 44.7472 62.3327C44.7773 60.9384 44.4227 59.732 43.924 58.7336Z" fill="#FEEADD"/>
<rect width="4.11706" height="5.37312" fill="black" fill-opacity="0" transform="translate(27.416 65.6119) scale(4.16667)"/>
<path d="M44.5705 65.6119C44.5705 65.6119 42.6213 70.3967 41.6655 72.0155C40.71 73.635 39.5914 74.7267 39.7006 76.5413C39.8098 78.3556 39.4291 78.5903 38.7143 79.8368C37.9996 81.0831 37.3473 81.1717 37.3086 82.7184C37.27 84.2655 37.4881 85.6997 35.5844 86.872C33.6809 88.0444 31.3261 88.2852 29.8421 87.6765C28.3575 87.0676 27.2077 87.6416 27.4479 85.0744C27.6884 82.5072 27.9524 82.5234 28.9939 82.33C30.0351 82.1367 30.5864 82.5585 30.5864 82.5585C30.5864 82.5585 29.2497 82.2169 28.6597 83.3422C28.0694 84.4672 26.9585 85.6896 28.9792 86.4606C30.9998 87.232 33.3777 87.38 34.776 86.5637C36.1748 85.7467 36.6719 85.2617 36.6867 83.3256C36.7022 81.3896 36.6789 81.0006 37.7816 79.6493C38.8852 78.2982 39.8413 78.8738 39.3434 77.1644C38.8455 75.4549 39.9022 73.3261 40.6244 72.2089C41.3465 71.0921 44.5705 65.6119 44.5705 65.6119Z" fill="#EFD2C6"/>
<rect width="0.908373" height="1.4651" fill="black" fill-opacity="0" transform="translate(25.1191 81.2551) scale(4.16667)"/>
<path d="M28.5449 81.3981C28.5449 81.3981 26.268 80.7405 25.5689 82.2459C24.8697 83.7517 24.3885 86.6912 28.904 87.3597L28.2045 86.6705C28.2045 86.6705 26.2227 86.5471 26.0898 84.3439C25.9576 82.1407 26.2992 81.2586 28.5449 81.3981Z" fill="#EFD2C6"/>
<rect width="4.5905" height="6.12399" fill="black" fill-opacity="0" transform="translate(28.5391 48.6454) scale(4.16667)"/>
<path d="M34.4054 49.3475C33.5936 50.3275 32.8745 51.4188 32.012 52.3317C32.242 52.521 32.9252 52.1841 33.2029 52.2172C32.9809 52.8947 32.14 53.0299 31.9768 53.7272C32.1232 53.9112 33.1139 53.3749 33.387 53.3891C32.8224 54.1078 32.1196 54.6571 31.5039 55.343C31.6107 55.4163 32.6584 55.4907 32.6592 55.4587C32.0841 55.9717 31.3537 56.3384 30.7438 56.8165C31.0586 57.0459 31.9114 56.2443 32.1961 56.6191C31.4076 57.369 30.6332 58.1869 29.8478 58.9348C29.9616 59.0335 30.7372 58.47 30.7759 58.5941C30.4561 59.3675 29.6084 60.2291 29.0749 60.9395C29.1396 61.0676 30.4467 60.2081 30.6448 60.2149C29.9452 60.9252 29.2177 61.6593 28.5391 62.3377C29.4079 61.8664 30.1526 61.5393 31.0543 61.1759C30.8087 61.6654 29.5102 62.4068 29.6513 63.1034C29.7955 63.0487 30.8999 62.2807 30.981 62.3085C31.0129 63.0726 30.6845 63.7776 30.5072 64.5174C30.7228 64.7472 31.193 63.3902 31.3901 63.2966C31.3771 64.5869 31.2641 65.9477 31.1635 67.2261C30.9926 66.8252 31.5027 65.5965 31.6033 65.1652C31.3264 66.6146 31.1643 68.2142 30.8243 69.5959C31.2571 69.2667 31.9207 68.1367 32.4428 67.9837C32.4494 68.205 32.4362 69.8689 32.0986 69.8535C32.6163 69.5975 32.9477 69.0156 33.4263 68.685C33.829 69.1534 33.3666 69.7736 33.5217 70.3091C34.152 70.0927 34.4094 69.3214 35.0113 69.155C35.2228 69.2779 35.2383 70.0655 35.4184 70.0655C35.5709 69.8103 35.7586 69.5847 35.9816 69.3885C36.6387 69.8164 35.9068 70.4814 36.1581 70.9644C36.7315 70.7313 36.6812 69.7388 37.1085 69.3766C37.2953 69.9794 37.1927 70.915 37.2414 71.4865C37.6108 71.5285 37.7176 70.4946 37.9484 70.5031C38.1918 71.1649 38.1364 71.9926 38.391 72.6021C38.5485 72.4949 39.2431 71.2506 39.2227 71.2466C39.5701 72.0204 39.2166 72.8234 39.3958 73.5379C39.7125 73.3891 40.0487 71.6777 40.1765 71.2482C40.2086 72.2336 40.0663 73.1755 39.9996 74.162C40.4169 72.808 41.1214 71.2109 41.4389 69.6086C41.5032 70.6198 41.376 71.6402 41.2143 72.6092C41.6856 71.2855 42.0853 70.0716 42.4457 68.6684C42.82 69.4767 42.3235 70.3963 42.3549 71.1965C42.9842 70.1415 43.1449 68.9896 43.9439 68.0072C43.9169 68.7057 43.3843 69.8265 43.5605 70.4849C43.9792 69.7799 44.2939 68.7377 44.8738 68.1645C45.4626 68.8707 44.657 69.5385 45.0597 70.2641C46.1434 69.6861 46.1177 68.4898 47.6662 68.4566C44.2835 62.0468 43.5144 51.6551 35.6245 48.6454" fill="#D78640"/>
<rect width="3.39786" height="5.27219" fill="black" fill-opacity="0" transform="translate(33.5977 52.7913) scale(4.16667)"/>
<path d="M36.8837 67.3621C35.8739 68.6483 35.9292 70.4413 33.5977 71.1253C34.8499 70.6431 36.022 70.1461 37.2237 69.4444C37.0183 70.0612 36.0695 71.0473 36.0993 71.707C36.2576 71.628 37.739 70.7579 37.7236 70.7305C37.9219 71.0416 37.5661 71.7441 37.5853 72.0725C38.208 71.7676 38.3168 71.1276 38.8866 70.722C39.0156 71.5015 38.8351 72.3739 38.9341 73.1925C39.1501 73.019 39.686 71.8203 39.9421 71.7393C39.898 72.5301 39.7822 73.32 39.7515 74.1091C40.2069 74.5424 40.488 72.8176 40.5984 72.6959C40.6896 73.3362 40.501 74.1557 40.4846 74.7587C41.4367 72.8964 42.6736 71.3756 43.4528 69.3766C43.4492 70.1496 43.2625 71.1519 43.1525 71.9055C43.5776 70.7682 44.0366 69.6741 44.6475 68.6684C44.8136 69.0377 44.8939 70.9723 44.9931 71.057C51.2282 67.8268 45.2636 59.5031 43.0888 54.649C42.9185 54.8746 42.747 55.0991 42.5729 55.3225C42.3008 54.92 42.6007 54.4321 42.4681 53.9302C41.9756 54.183 42.1503 54.6623 41.9506 55.0582C41.8586 54.2566 41.9317 53.7184 41.7276 52.9983C41.5733 52.9336 41.5411 54.4343 41.4886 54.5878C41.3651 54.4424 41.4261 53.1509 41.2972 52.7913C41.1622 53.2184 40.816 53.6414 40.2528 53.4578C40.5109 54.8026 40.8549 56.0921 40.9793 57.3796C40.9735 57.1692 40.4626 56.7834 40.479 56.3959C40.5329 57.7468 41.0742 59.0953 41.1412 60.4484C40.6381 59.8181 40.0767 58.9187 39.4394 58.3794C40.3694 60.1257 40.7829 62.0444 41.5725 63.7824C40.8222 62.9609 39.9214 62.228 39.1719 61.5472C39.8637 62.8752 40.5501 64.3248 41.294 65.6337C40.3067 65.1832 39.4738 64.4511 38.5005 63.9543C38.9301 64.7399 39.9026 65.5928 40.4417 66.39C39.0557 65.7085 38.9107 65.1564 37.3918 64.9837C38.0966 65.7337 38.9201 66.094 39.1014 67.2702C38.7293 67.0353 37.9772 65.9189 37.3635 66.2921C37.8594 66.7716 38.4997 67.5122 38.8253 68.0558C37.9576 67.7573 36.8308 67.8296 36.4684 67.8303" fill="#D07B31"/>
<rect width="7.48982" height="4.39602" fill="black" fill-opacity="0" transform="translate(3.31055 30.5527) scale(4.16667)"/>
<path d="M33.3632 39.259C31.172 43.7921 27.762 47.6709 22.4659 47.9689C16.4732 48.3674 10.9562 44.8804 6.42798 40.6941C3.75327 38.0237 3.71194 34.3046 4.54169 30.7375C4.20647 30.651 3.86407 30.5867 3.51069 30.5527C2.22514 37.9643 7.31423 44.3369 13.5631 47.1504C20.554 50.2973 24.5536 48.5447 28.4079 46.4907C31.0039 45.1068 33.1893 41.9483 34.5182 39.2412C34.138 39.2307 33.7523 39.2372 33.3632 39.259Z" fill="#FBDAD4"/>
<rect width="7.03129" height="4.143" fill="black" fill-opacity="0" transform="translate(4.06445 30.7375) scale(4.16667)"/>
<path d="M6.42631 40.6942C10.9546 44.8805 16.4715 48.3675 22.4642 47.969C27.7603 47.6709 31.1704 43.7921 33.3615 39.259C32.3281 39.3157 31.2644 39.4856 30.1773 39.7866C29.0301 40.1849 27.1748 39.6062 26.7715 38.4716C24.1471 33.1146 16.2259 33.1636 11.3804 33.164C8.95189 33.1466 6.9496 31.3605 4.54002 30.7375C3.71027 34.3047 3.7516 38.0238 6.42631 40.6942Z" fill="#FFF7EE"/>
<rect width="4.54177" height="3.07247" fill="black" fill-opacity="0" transform="translate(8.66016 34.8987) scale(4.16667)"/>
<path d="M27.5817 40.9243C27.4942 39.7104 26.3299 41.0611 25.0455 42.1102C23.7606 43.1591 22.4894 43.422 20.6472 43.2428C19.0656 43.0886 17.7695 42.0531 17.4335 41.7628L17.4352 41.713C17.4352 41.713 17.4147 41.7158 17.3841 41.7192C17.3616 41.6992 17.3456 41.685 17.3456 41.685L17.3187 41.7269C16.875 41.774 14.9654 41.8125 13.5812 41.0411C11.9686 40.1421 11.3277 39.2785 10.8851 37.6905C10.4421 36.1022 9.86032 34.2067 9.08388 35.1512C8.30804 36.0953 8.5622 40.1306 10.1406 42.996C11.4505 45.3743 13.3592 46.3936 15.7021 46.9865C17.9653 47.8315 20.1197 48.0803 22.5736 46.8762C25.5293 45.426 27.6685 42.1382 27.5817 40.9243Z" fill="#030404"/>
<rect width="3.86882" height="6.84969" fill="black" fill-opacity="0" transform="translate(0.0507812) scale(4.16667)"/>
<path d="M16.1709 15.2402C16.1709 15.2402 12.1821 2.07326 7.64243 0.374766C3.10198 -1.32432 0.0712937 3.02208 0.0509294 8.00899C0.0307647 12.9965 2.07558 18.2858 2.11891 19.5765C2.16183 20.8676 2.97022 22.6886 3.36153 23.2301C3.75304 23.7713 3.65961 26.5443 4.28032 28.3711C4.90183 30.1973 11.7353 16.6773 16.1709 15.2402Z" fill="#CF782C"/>
<rect width="1.35686" height="4.97992" fill="black" fill-opacity="0" transform="translate(2.32031 1.08667) scale(4.16667)"/>
<path d="M7.97392 2.39758C6.96389 1.29756 5.91333 0.851867 4.75875 1.20578C2.19265 1.99235 2.06188 10.1875 2.53644 13.611C2.85089 15.8775 3.11403 19.3485 4.69606 21.8364C4.69766 21.6417 4.70684 21.4473 4.728 21.2555C5.3032 14.744 2.5061 6.44928 7.97392 2.39758Z" fill="#FFF7EE"/>
<rect width="1.32425" height="5.06707" fill="black" fill-opacity="0" transform="translate(4.35742 2.11609) scale(4.16667)"/>
<path d="M9.32729 6.05094C9.42233 5.75269 9.61738 5.48583 9.87513 5.27305C9.24703 4.07177 8.30329 2.81838 7.65802 2.11609C2.1902 6.16819 5.30274 14.7439 4.72755 21.2554C4.70639 21.4473 4.6972 21.6417 4.69561 21.8363C5.02223 22.3487 5.40476 22.8187 5.85438 23.2289C4.87809 17.5401 6.27165 11.3126 9.32729 6.05094Z" fill="#FEF1DD"/>
<rect width="1.80203" height="4.42243" fill="black" fill-opacity="0" transform="translate(5.47266 5.27295) scale(4.16667)"/>
<path d="M9.41294 11.3725C10.8862 10.5244 11.9499 11.8472 12.789 13.8386C13.1921 13.4123 13.033 12.6462 11.6113 9.11701C11.0241 7.66011 10.4497 6.3704 9.87493 5.27295C9.61718 5.48573 9.42212 5.75259 9.32709 6.05084C5.68507 11.0841 4.87788 17.54 5.85417 23.2288C6.03865 23.3964 6.23571 23.5533 6.44394 23.6997C6.23012 19.0436 5.66271 13.6262 9.41294 11.3725Z" fill="#FDE6C5"/>
<rect width="1.56165" height="2.98954" fill="black" fill-opacity="0" transform="translate(6.2832 11.1116) scale(4.16667)"/>
<path d="M11.6794 14.6881C12.1466 14.2151 12.5599 14.0825 12.7901 13.8387C11.951 11.8473 10.8872 10.5244 9.41401 11.3726C5.69931 13.6052 6.221 18.9415 6.43862 23.568C8.07914 21.8221 9.8724 20.2152 11.7747 18.7644C11.3199 17.3409 10.9234 15.4537 11.6794 14.6881Z" fill="#FDE1B0"/>
<rect width="2.67248" height="3.76826" fill="black" fill-opacity="0" transform="translate(6.6875 0.266235) scale(4.16667)"/>
<path d="M6.6875 0.270978C6.6875 0.270978 10.644 -0.256437 14.6713 9.81291C14.6713 9.81291 15.4128 12.0274 16.2342 12.9444C17.0553 13.8617 17.818 15.311 17.818 15.311C17.818 15.311 17.957 15.5751 16.7465 15.5278C15.6047 15.4834 13.8589 14.7621 13.4998 15.9673C13.501 15.4727 13.5151 14.9781 13.5337 14.4858C13.7815 14.3492 13.9833 14.21 14.0642 13.8092C14.2505 12.8761 11.5085 3.3178 6.6875 0.270978Z" fill="#BD5C27"/>
<rect width="2.23231" height="2.3932" fill="black" fill-opacity="0" transform="translate(3.60156 14.6687) scale(4.16667)"/>
<path d="M12.2306 14.6687C11.6796 15.8812 10.9219 16.6909 9.76317 16.6692C9.73741 16.7185 10.1387 17.0186 10.1862 17.027C9.87737 17.1184 9.4597 17.2698 9.12948 17.2621C9.18219 17.4376 9.56272 17.3644 9.62781 17.5351C9.36646 17.7526 8.96996 17.6196 8.73757 17.7892C8.74216 17.9557 9.20555 18.039 9.14925 18.2429C8.65172 18.6065 8.39437 18.5911 7.85391 18.8209C7.89923 18.7842 8.19791 19.0285 8.28915 18.9298C7.5217 19.1979 6.82911 19.6905 6.0329 19.9831C6.28406 20.258 6.74765 20.4013 7.0623 20.5845C6.60231 21.1678 6.26809 20.6883 5.751 20.8861C5.61603 20.7969 5.62043 20.7931 5.76378 20.8733C5.77995 20.8571 6.37371 21.2688 6.34875 21.3367C5.77096 21.0835 5.30059 21.1139 4.59083 20.5472C4.86395 21.0047 5.22193 21.6527 5.59467 22.0507C4.47463 21.2676 4.16358 21.016 3.76887 19.4726C3.32445 21.4092 3.64329 24.7465 6.23255 24.6378C8.17675 24.5561 11.1182 19.9256 12.9029 18.8444" fill="#CF782C"/>
<rect width="1.21064" height="4.24265" fill="black" fill-opacity="0" transform="translate(0 6.68835) scale(4.16667)"/>
<path d="M0.0285078 6.68835C0.0285078 6.68835 -4.30307e-05 14.0689 1.66045 18.4635C2.56027 20.8471 2.11186 21.2701 2.72179 22.4297C3.33172 23.5894 3.71305 24.3142 5.04432 24.3661C5.04432 24.3661 3.88335 23.3981 3.56651 22.0877C3.24986 20.7774 3.23729 20.0469 2.59242 18.9974C1.94735 17.9477 -0.276158 8.41033 0.0285078 6.68835Z" fill="#BD5C27"/>
<rect width="4.65324" height="6.00436" fill="black" fill-opacity="0" transform="translate(32.7266 12.9641) scale(4.16667)"/>
<path d="M32.7266 20.408C32.7266 20.408 43.6388 11.8915 48.3426 13.0774C53.0466 14.2641 53.004 19.5429 50.1243 23.6374C47.2441 27.732 42.4986 30.9022 41.714 31.9345C40.9286 32.9674 39.209 33.9993 38.5741 34.2202C37.9394 34.4411 36.4061 36.7647 34.8363 37.9081C33.267 39.0508 36.3157 26.7111 32.7266 20.408Z" fill="#CF782C"/>
<rect width="2.94585" height="4.2999" fill="black" fill-opacity="0" transform="translate(38.2871 14.4037) scale(4.16667)"/>
<path d="M46.8922 14.5439C48.3581 14.2165 49.4773 14.4478 50.2174 15.3927C51.8613 17.4934 47.2089 24.2777 44.8322 26.811C43.2584 28.4883 41.0271 31.1812 38.2871 32.32C38.3989 32.1593 38.5043 31.9958 38.5986 31.8265C41.9092 26.1683 49.0163 20.965 46.8922 14.5439Z" fill="#FFF7EE"/>
<rect width="2.67745" height="4.39433" fill="black" fill-opacity="0" transform="translate(36.5293 14.4927) scale(4.16667)"/>
<path d="M43.6622 16.7671C43.7572 16.4685 43.753 16.1393 43.6652 15.8185C44.8773 15.192 46.3776 14.7017 47.314 14.4927C49.4371 20.9138 41.9089 26.1683 38.5983 31.8265C38.504 31.9959 38.3986 32.1593 38.2868 32.32C37.7222 32.5545 37.1356 32.7221 36.5293 32.8024C40.6323 28.699 43.108 22.8091 43.6622 16.7671Z" fill="#FEF1DD"/>
<rect width="1.91008" height="4.08831" fill="black" fill-opacity="0" transform="translate(35.7734 15.8185) scale(4.16667)"/>
<path d="M40.5012 21.075C39.787 19.5449 38.1481 20.0239 36.3045 21.1778C36.2227 20.5995 36.797 20.063 40.0108 17.9808C41.3379 17.1206 42.5568 16.3913 43.665 15.8185C43.7529 16.1392 43.757 16.4685 43.662 16.7671C43.7201 22.9547 40.6321 28.699 36.5291 32.8024C36.2807 32.8352 36.0284 32.8517 35.7734 32.8531C38.652 29.1618 42.2629 25.0484 40.5012 21.075Z" fill="#FDE6C5"/>
<rect width="1.60576" height="3.03379" fill="black" fill-opacity="0" transform="translate(34.2754 20.1084) scale(4.16667)"/>
<path d="M36.7203 22.5042C36.6131 21.8514 36.3522 21.5076 36.3046 21.1779C38.1482 20.024 39.7871 19.545 40.5013 21.0751C42.2462 25.0115 38.72 29.0846 35.8554 32.7492C35.5256 30.3887 34.9905 28.0544 34.2754 25.7873C35.4749 24.8797 36.895 23.56 36.7203 22.5042Z" fill="#FDE1B0"/>
<rect width="4.29106" height="2.30025" fill="black" fill-opacity="0" transform="translate(31.3008 12.9327) scale(4.16667)"/>
<path d="M49.1802 13.5328C49.1802 13.5328 46.2468 10.8549 37.1018 16.8135C37.1018 16.8135 35.2091 18.2055 34.0038 18.4905C32.7985 18.7749 31.3323 19.5291 31.3323 19.5291C31.3323 19.5291 31.0656 19.6663 32.084 20.3147C33.0445 20.9258 34.8933 21.3263 34.4872 22.5171C34.7735 22.1119 35.0492 21.6988 35.3197 21.2854C35.1961 21.0326 35.1115 20.804 35.2784 20.4304C35.6677 19.5603 43.4636 13.291 49.1802 13.5328Z" fill="#BD5C27"/>
<rect width="1.50504" height="2.89201" fill="black" fill-opacity="0" transform="translate(34.1504 22.1753) scale(4.16667)"/>
<path d="M36.2835 22.1753C36.0307 23.4806 36.1804 24.5735 37.1421 25.2138C37.1344 25.2687 36.6316 25.2867 36.5875 25.2663C36.7872 25.5168 37.0415 25.8778 37.3168 26.059C37.1713 26.1727 36.9026 25.8966 36.7498 25.9996C36.8371 26.3265 37.2396 26.4421 37.3312 26.7132C37.231 26.847 36.8027 26.6516 36.7311 26.8507C36.9267 27.431 37.1467 27.5645 37.4556 28.0597C37.44 28.0034 37.0531 28.0342 37.0359 27.9014C37.5087 28.5563 37.7898 29.3524 38.2714 30.044C37.9064 30.1273 37.4434 29.9812 37.0797 29.9522C37.1172 30.6912 37.6692 30.4881 37.9777 30.9439C38.1404 30.9476 38.1392 30.9419 37.9749 30.9261C37.9711 30.9036 37.2458 30.904 37.227 30.9731C37.8471 31.0941 38.2149 31.386 39.1245 31.3246C38.6355 31.5445 37.9665 31.8714 37.4298 31.9867C38.8012 31.9805 39.2021 31.9511 40.4214 30.9119C39.6611 32.7488 37.4618 35.3009 35.4044 33.7418C33.8603 32.5719 34.9837 27.3179 34.1504 25.4197" fill="#CF782C"/>
<rect width="3.44967" height="2.88346" fill="black" fill-opacity="0" transform="translate(36.5332 22.5673) scale(4.16667)"/>
<path d="M50.9068 22.5673C50.9068 22.5673 46.6431 28.6264 42.7319 31.282C40.6107 32.7225 40.7324 33.3235 39.5595 33.9265C38.3866 34.5295 37.6534 34.9065 36.5332 34.1936C36.5332 34.1936 38.0466 34.0599 39.0666 33.167C40.087 32.2742 40.521 31.6828 41.6584 31.1898C42.7964 30.6967 50.1557 24.1503 50.9068 22.5673Z" fill="#BD5C27"/>
<rect width="7.79683" height="6.06839" fill="black" fill-opacity="0" transform="translate(3.50977 14.8141) scale(4.16667)"/>
<path d="M35.7946 35.8772C36.8082 27.7371 33.6773 21.1439 33.6773 21.1439C29.0642 15.9452 21.961 14.9425 18.0325 14.8171C16.291 14.7617 13.8612 15.478 13.0758 15.9795C10.3366 17.7293 6.73931 21.2465 4.24068 27.8751C4.09554 28.2586 4.04064 28.4005 3.93183 28.7799L3.86075 29.0027L3.74156 29.4792C3.65092 29.8388 3.57146 30.1973 3.50977 30.5528C3.58703 30.7178 3.66629 30.8747 3.74695 31.0259C5.56257 31.9572 7.37459 32.3736 9.05006 31.6804C13.6268 29.3268 18.2887 27.5046 23.0242 25.4528C24.5625 30.219 27.248 34.5865 30.0067 38.7249C30.8654 39.9104 32.2392 40.2666 33.5971 40.03C33.8987 39.8113 34.2056 39.5511 34.5172 39.2412C35.1611 37.9296 35.6874 36.7376 35.7946 35.8772Z" fill="#D78640"/>
<rect width="7.16402" height="3.72611" fill="black" fill-opacity="0" transform="translate(3.74609 25.4529) scale(4.16667)"/>
<path d="M30.0059 38.725C27.986 32.881 24.5616 30.2191 23.0233 25.4529C18.2878 27.5047 14.4871 28.2271 9.0492 31.6805C7.37374 32.3738 5.56171 31.9573 3.74609 31.026C6.1423 35.5122 9.97778 33.8514 11.2096 33.1586C11.2665 33.1613 11.3234 33.1641 11.3803 33.1641C16.2258 33.1637 24.147 33.1147 26.7714 38.4717C26.8981 38.8284 27.1683 39.1294 27.5143 39.3631C28.569 40.4164 30.8446 42.0239 33.5962 40.0301C32.2384 40.2667 30.8646 39.9105 30.0059 38.725Z" fill="#CF782C"/>
<rect width="1.71443" height="1.75616" fill="black" fill-opacity="0" transform="translate(10.7188 20.502) scale(4.16667)"/>
<path d="M16.9726 21.5226C16.9726 21.5226 18.2274 22.882 17.7564 25.0408C17.2853 27.1997 15.3828 28.3868 13.1114 27.5493C10.8392 26.7128 9.92676 23.3071 11.5204 22.0257C13.115 20.7443 14.1751 19.6078 16.9726 21.5226Z" fill="#CF782C"/>
<rect width="1.40327" height="1.32088" fill="black" fill-opacity="0" transform="translate(11.6074 21.6327) scale(4.16667)"/>
<path d="M17.0226 26.0458C17.0226 26.0458 18.3421 22.8294 16.3676 21.88C14.392 20.9315 11.8669 23.0171 11.8669 23.0171C11.8669 23.0171 10.8249 25.164 12.9172 26.6128C15.0102 28.0609 17.0226 26.0458 17.0226 26.0458Z" fill="#733817"/>
<rect width="1.74273" height="1.7319" fill="black" fill-opacity="0" transform="translate(25.8223 25.2375) scale(4.16667)"/>
<path d="M28.7508 25.2389C28.7508 25.2389 26.9429 25.6772 26.1194 27.7304C25.2958 29.7838 26.2076 31.8165 28.5667 32.3705C30.9251 32.9254 33.6009 30.5976 32.9973 28.6562C32.394 26.7143 32.1526 25.1865 28.7508 25.2389Z" fill="#CF782C"/>
<rect width="1.43719" height="1.40386" fill="black" fill-opacity="0" transform="translate(26.1621 25.8507) scale(4.16667)"/>
<path d="M26.1621 28.9696C26.1621 28.9696 26.8757 25.5708 29.0508 25.8693C31.2262 26.1667 32.1504 29.2899 32.1504 29.2899C32.1504 29.2899 31.8074 31.6469 29.2537 31.6994C26.7 31.7513 26.1621 28.9696 26.1621 28.9696Z" fill="#733817"/>
<rect width="4.20838" height="2.40148" fill="black" fill-opacity="0" transform="translate(9.33398 35.5889) scale(4.16667)"/>
<path d="M26.8598 41.087C26.6987 40.5774 26.18 41.042 26.18 41.042C21.6591 45.0586 17.1747 41.8635 17.1747 41.8635C17.1747 41.8635 11.4785 41.8817 10.1097 36.0265C10.1097 36.0265 9.955 35.3518 9.52715 35.6779C9.0991 36.0032 9.37422 39.0535 10.435 40.8041C11.7273 42.9383 13.4175 44.0501 15.994 44.9838L15.9876 45.0003C16.0673 45.0232 16.1438 45.0424 16.2212 45.0637C16.2981 45.0905 16.3726 45.1184 16.4502 45.145L16.4544 45.1273C19.076 45.8161 20.8425 45.7826 23.1397 44.7692C25.0242 43.9376 27.0207 41.5966 26.8598 41.087Z" fill="#8A181A"/>
<rect width="1.4784" height="2.07729" fill="black" fill-opacity="0" transform="translate(3.28516 23.864) scale(4.16667)"/>
<path d="M5.431 25.0981C5.63224 25.6642 6.27292 25.9219 7.28714 25.6298C7.00644 25.8268 6.70077 26.2407 6.18328 26.4772C6.66404 26.4509 7.62056 26.7381 7.97434 26.7486C7.61078 26.9383 7.21048 27.2567 6.84033 27.4755C7.25061 27.4783 7.83359 27.6044 8.24766 27.5632C7.84596 27.7979 7.33626 28.3515 6.74529 28.5959C7.21387 28.6271 7.75992 28.782 8.22849 28.7791C7.76371 29.0134 6.99166 29.6014 6.27731 29.798C7.17993 29.7652 8.33571 29.6484 9.32318 29.5424C8.5701 30.05 8.14205 30.4861 7.26379 30.8119C7.86673 30.6033 8.74759 30.4683 9.44516 30.1939C8.83224 30.6647 8.3385 31.2193 7.62375 31.6253C8.00868 31.5509 8.52378 31.5126 8.97179 31.3855C7.37659 33.3205 4.25186 32.63 3.28516 30.4399L4.1155 27.5628C4.1155 27.5628 3.71061 25.5195 3.71061 23.864L4.35169 24.0642C4.35169 24.0642 5.15268 24.3144 5.431 25.0981Z" fill="#CF782C"/>
<rect width="2.08229" height="1.52962" fill="black" fill-opacity="0" transform="translate(29.2539 33.9594) scale(4.16667)"/>
<path d="M35.804 34.5778C35.3113 34.9265 34.6367 34.7743 33.976 33.9594C34.0914 34.2801 34.1012 34.7925 34.3879 35.2797C34.0092 34.9852 33.0596 34.6776 32.7638 34.4856C32.9512 34.8468 33.094 35.3349 33.2703 35.7242C32.9323 35.4936 32.3824 35.2658 32.067 34.9972C32.2594 35.4166 32.3547 36.1598 32.6971 36.6953C32.2954 36.4551 31.7589 36.2721 31.3768 36.0037C31.6208 36.459 31.9116 37.3788 32.3824 37.9451C31.6621 37.4063 30.784 36.654 30.0373 36.0072C30.3586 36.8502 30.4564 37.4503 30.9857 38.2153C30.6135 37.7023 29.9707 37.092 29.5588 36.4715C29.7874 37.2041 29.8692 37.9386 30.2186 38.6772C29.9467 38.3973 29.5472 38.0744 29.2539 37.7154C29.4364 40.2058 32.1762 40.9965 34.2392 39.7522L35.4505 37.3423C35.4505 37.3423 36.9684 35.8988 37.9301 34.5438L37.289 34.3437C37.289 34.3437 36.4872 34.0936 35.804 34.5778Z" fill="#CF782C"/>
<rect width="3.35092" height="4.1932" fill="black" fill-opacity="0" transform="translate(9.23633 37.5234) scale(4.16667)"/>
<path d="M18.8519 52.892C18.1715 53.7717 16.5695 54.4491 15.3371 54.3165C11.9562 54.5216 8.28262 50.8542 10.3811 47.4751C12.3309 44.3369 13.216 41.084 13.7137 37.5234C13.2831 38.1144 13.0016 38.6262 12.9213 38.8773C12.4942 40.2138 12.2335 42.5828 11.3085 44.5485C10.3835 46.5143 8.03525 49.2113 9.99522 52.0774C11.955 54.9436 14.5976 55.6703 17.6863 54.38C20.7755 53.0897 20.9548 49.4216 20.9217 47.3532C20.8877 45.2842 23.1985 40.2227 23.1985 40.2227C23.112 39.9532 23.0232 39.6984 22.9342 39.4517C20.5014 43.2691 20.4148 48.5625 18.8519 52.892Z" fill="#EE2424"/>
<rect width="2.9717" height="4.16989" fill="black" fill-opacity="0" transform="translate(10.5527 34.4166) scale(4.16667)"/>
<path d="M14.3732 51.7461C16.2603 51.93 18.3656 51.5434 19.9135 50.728C20.8978 46.9041 20.9048 42.6372 22.9348 39.4516C19.9405 31.165 15.5216 35.0391 13.7144 37.5234C13.232 40.976 12.3811 44.1395 10.5527 47.1901C10.8374 49.4527 12.0142 51.5244 14.3732 51.7461Z" fill="#EE2424"/>
<rect width="2.4466" height="1.71579" fill="black" fill-opacity="0" transform="translate(9.76758 47.1901) scale(4.16667)"/>
<path d="M14.3741 51.7461C12.0151 51.5244 10.8383 49.4527 10.5536 47.1901C10.4967 47.285 10.442 47.3797 10.3827 47.4751C8.28421 50.8541 11.9578 54.5215 15.3387 54.3164C16.5711 54.4491 17.8782 54.0057 18.8535 52.8919C19.6251 52.3224 19.7667 51.3371 19.9617 50.5795C18.4137 51.3945 16.2612 51.93 14.3741 51.7461Z" fill="#EE2624"/>
<rect width="1.09288" height="2.81005" fill="black" fill-opacity="0" transform="translate(14.627 37.7294) scale(4.16667)"/>
<path d="M17.4678 38.025C17.4678 38.025 13.8703 48.8719 14.772 49.4188C15.673 49.9664 19.1806 38.5597 19.1806 38.5597C19.1806 38.5597 18.4272 37.1275 17.4678 38.025Z" fill="#ED2124"/>
<rect width="0.827751" height="2.32686" fill="black" fill-opacity="0" transform="translate(15.2402 37.9531) scale(4.16667)"/>
<path d="M18.0294 38.0865C18.0294 38.0865 15.4702 44.7822 15.2806 46.5069C15.0907 48.2323 15.609 47.7398 16.0464 46.7464C16.4841 45.7525 17.866 41.4255 18.6892 38.4704C18.6892 38.4704 18.6401 37.6821 17.9201 38.0518" fill="#E41F25"/>
<rect width="1.1313" height="1.13953" fill="black" fill-opacity="0" transform="translate(12.2988 22.0621) scale(4.16667)"/>
<path d="M12.4721 23.2714C12.4721 23.2714 14.4117 21.0603 16.1477 22.6178C17.8836 24.1758 16.4697 26.3539 16.4697 26.3539C16.4697 26.3539 14.9304 27.4603 13.2551 26.2274C13.2551 26.2274 11.8109 24.6043 12.4721 23.2714Z" fill="white"/>
<rect width="0.976169" height="1.10782" fill="black" fill-opacity="0" transform="translate(12.6973 22.0657) scale(4.16667)"/>
<path d="M16.4057 25.6067C15.7694 26.6839 14.5032 27.0052 13.5778 26.3244C12.6529 25.6437 12.4193 24.2179 13.0557 23.1408C13.6928 22.0633 14.959 21.7422 15.884 22.4227C16.809 23.1039 17.043 24.5292 16.4057 25.6067Z" fill="#030404"/>
<rect width="0.210484" height="0.234045" fill="black" fill-opacity="0" transform="translate(15.002 24.5709) scale(4.16667)"/>
<path d="M15.8074 25.3281C15.6749 25.5526 15.4035 25.6136 15.2007 25.4647C14.9978 25.3155 14.9409 25.0125 15.0735 24.7881C15.2061 24.5641 15.4776 24.5037 15.6802 24.6525C15.8831 24.8015 15.94 25.1043 15.8074 25.3281Z" fill="white"/>
<rect width="1.1694" height="1.11078" fill="black" fill-opacity="0" transform="translate(12.207 21.7864) scale(4.16667)"/>
<path d="M16.4774 26.4146C16.4774 26.4146 17.9949 23.8461 16.2118 22.339C14.4277 20.8324 12.207 22.8838 12.207 22.8838C12.207 22.8838 12.5389 23.2476 13.0777 22.8941C13.7184 22.4742 15.1183 21.8262 16.1992 22.8159C17.2805 23.8056 16.7073 26.099 16.4774 26.4146Z" fill="#030404"/>
<rect width="1.06209" height="0.963556" fill="black" fill-opacity="0" transform="translate(12.1777 22.8881) scale(4.16667)"/>
<path d="M12.8581 22.8881C12.8581 22.8881 12.4041 23.1364 12.4408 23.8908C12.4774 24.6446 12.8245 26.3557 14.6494 26.6804C14.6494 26.6804 15.7716 26.7297 16.6031 26.2169L16.5398 26.3743C16.5398 26.3743 15.0924 27.6144 13.3295 26.2957C11.5666 24.9768 12.1803 23.1368 12.8581 22.8881Z" fill="#030404"/>
<rect width="1.20427" height="1.11848" fill="black" fill-opacity="0" transform="translate(26.4863 26.3926) scale(4.16667)"/>
<path d="M31.5041 29.0848C31.5041 29.0848 31.2071 26.1428 28.9017 26.4097C26.5963 26.6768 26.4863 29.2856 26.4863 29.2856C26.4863 29.2856 27.0967 31.0887 29.1648 31.0524C29.1648 31.0524 31.2717 30.5625 31.5041 29.0848Z" fill="white"/>
<rect width="0.997025" height="1.0898" fill="black" fill-opacity="0" transform="translate(26.9609 26.4041) scale(4.16667)"/>
<path d="M26.9698 28.71C26.865 29.9642 27.7053 30.9645 28.8479 30.9446C29.9903 30.9248 31.0019 29.8919 31.1063 28.6387C31.2115 27.385 30.3708 26.3842 29.2284 26.4044C28.0858 26.4239 27.0748 27.4564 26.9698 28.71Z" fill="#030404"/>
<rect width="0.218238" height="0.2268" fill="black" fill-opacity="0" transform="translate(27.6133 28.35) scale(4.16667)"/>
<path d="M27.6151 28.8305C27.5927 29.0914 27.778 29.2993 28.0284 29.2949C28.2783 29.2904 28.499 29.0756 28.5209 28.8147C28.5423 28.5539 28.3576 28.3459 28.1073 28.35C27.8573 28.3546 27.6369 28.5693 27.6151 28.8305Z" fill="white"/>
<rect width="1.31904" height="0.766986" fill="black" fill-opacity="0" transform="translate(26.4453 26.1354) scale(4.16667)"/>
<path d="M26.4453 29.3312C26.4453 29.3312 26.6957 26.3418 29.0096 26.1448C31.3244 25.9474 31.9413 28.9216 31.9413 28.9216C31.9413 28.9216 31.4627 29.027 31.23 28.4236C30.9526 27.7057 30.192 26.3599 28.7453 26.5423C27.2986 26.7247 26.4403 28.9386 26.4453 29.3312Z" fill="#030404"/>
<rect width="1.22787" height="0.60495" fill="black" fill-opacity="0" transform="translate(26.418 28.5463) scale(4.16667)"/>
<path d="M31.4122 28.5463C31.4122 28.5463 31.6368 29.0139 31.1728 29.6108C30.7081 30.2082 29.4399 31.4087 27.7742 30.6131C27.7742 30.6131 26.8358 30.0004 26.4577 29.096L26.418 29.2618C26.418 29.2618 26.876 31.1211 29.0655 31.0657C31.2547 31.0102 31.8177 29.1449 31.4122 28.5463Z" fill="#030404"/>
<rect width="4.01182" height="1.68057" fill="black" fill-opacity="0" transform="translate(10.0215 34.5299) scale(4.16667)"/>
<path d="M20.1935 35.9142C17.63 34.3582 15.2873 36.9042 13.4565 37.8456C11.7636 38.8453 10.8243 36.7651 10.636 34.5299C10.5951 34.6278 10.5534 34.7249 10.5134 34.8266C10.5134 34.8266 10.0846 35.8097 10.0215 37.055C10.1726 37.7285 10.5034 38.3519 11.089 38.8716C12.1751 39.4629 13.5663 39.8974 14.3231 39.1244C16.1539 38.1829 18.5456 33.8872 20.0593 37.1332C20.9378 39.1726 20.8286 41.9113 23.5134 41.4887C24.4103 41.3083 25.3149 40.9934 26.1752 40.5562C26.3724 40.1376 26.5541 39.67 26.7164 39.1459C26.7164 39.1459 26.725 39.1248 26.7374 39.0824C26.1838 39.3133 25.6291 39.5212 25.1005 39.715C22.427 40.8977 22.3663 37.0965 20.1935 35.9142Z" fill="#FFF0E2"/>
<rect width="3.89187" height="4.54116" fill="black" fill-opacity="0" transform="translate(10.6348 21.0188) scale(4.16667)"/>
<path d="M24.1227 22.8051C24.1992 22.4447 24.22 22.0132 24.1283 21.7507C23.9365 21.2014 23.5312 20.5202 22.8617 21.5614C21.8717 23.1004 20.7127 26.1383 17.5469 27.8597C15.9538 28.7258 12.3731 30.6543 10.6348 34.5299C10.823 36.7651 11.7624 38.8453 13.4552 37.8456C15.286 36.9042 17.6287 34.3582 20.1922 35.9142C22.365 37.0965 22.4257 40.8977 25.0992 39.715C25.6279 39.5212 26.1825 39.3133 26.7362 39.0824C26.8508 38.6892 27.3249 36.393 24.9257 30.7044C23.4427 27.1888 23.8592 24.0443 24.1227 22.8051Z" fill="#FFF7EE"/>
<rect width="3.87873" height="1.72176" fill="black" fill-opacity="0" transform="translate(10.0137 35.9386) scale(4.16667)"/>
<path d="M20.0592 37.1331C18.5454 33.8871 16.1538 38.1828 14.323 39.1243C13.5662 39.8973 12.175 39.4628 11.0889 38.8715C10.5033 38.3518 10.1725 37.7284 10.0214 37.0549C9.98624 37.7511 10.0645 38.529 10.3979 39.2635C11.5209 40.5897 13.2683 41.3017 15.3482 40.7054C16.1906 40.464 15.9947 37.8818 17.3741 37.5553C19.6685 36.7593 19.9376 39.1119 19.5102 41.2478C19.4493 42.2369 20.9261 43.2023 22.232 43.106C23.2147 42.951 24.1472 42.6753 25.0289 42.3048C25.4474 41.8538 25.8351 41.2786 26.1751 40.5561C25.3148 40.9934 24.4102 41.3082 23.5133 41.4886C20.8284 41.9112 20.9377 39.1725 20.0592 37.1331Z" fill="#FEE4D9"/>
<rect width="3.51143" height="1.52799" fill="black" fill-opacity="0" transform="translate(10.3984 37.397) scale(4.16667)"/>
<path d="M19.5107 41.248C19.9381 39.1121 19.669 36.7595 17.3746 37.5555C15.9952 37.882 16.1911 40.4642 15.3488 40.7056C13.2688 41.3019 11.5215 40.5899 10.3984 39.2637C11.0906 40.7877 12.8757 42.123 17.0021 42.1419C17.0021 42.1419 21.8951 45.6794 25.0294 42.305C24.1477 42.6755 23.2152 42.9512 22.2325 43.1061C20.9266 43.2025 19.4498 42.2371 19.5107 41.248Z" fill="#F5D4CC"/>
<rect width="2.41257" height="1.32882" fill="black" fill-opacity="0" transform="translate(11.8691 38.252) scale(4.16667)"/>
<path d="M11.8691 40.9409C11.8691 40.9409 13.574 42.4823 17.0003 42.1418C17.0003 42.1418 19.3592 44.0404 21.9215 43.7605C21.9215 43.7605 19.016 43.2027 18.3626 41.7289C17.7089 40.2546 19.0589 38.644 19.0589 38.644L17.1922 38.252C17.1922 38.252 17.5296 43.5332 11.8691 40.9409Z" fill="#DDB9AC"/>
<rect width="1.26685" height="1.03934" fill="black" fill-opacity="0" transform="translate(14.2949 39.1443) scale(4.16667)"/>
<path d="M14.2949 42.0322C14.2949 42.0322 16.4326 42.0504 16.9289 41.1456C17.4254 40.2408 17.6371 39.1443 17.6371 39.1443L18.16 39.2396C18.16 39.2396 17.4889 40.8649 17.7712 41.6479C18.2302 42.9187 19.5735 43.4749 19.5735 43.4749C19.5735 43.4749 17.6722 43.2736 17.0086 42.212C17.0086 42.212 15.4397 42.5608 14.2949 42.0322Z" fill="#71544B"/>
<rect width="2.08833" height="1.95304" fill="black" fill-opacity="0" transform="translate(14.584 32.3077) scale(4.16667)"/>
<path d="M17.8456 40.3986C17.8456 40.3986 15.3336 39.537 14.6979 37.3526C14.1946 35.6233 15.2853 31.3391 19.446 32.5064C23.6073 33.6734 23.6077 36.178 22.989 37.6988C22.3697 39.2196 21.873 40.7328 17.8456 40.3986Z" fill="#4F4F51"/>
<rect width="1.50025" height="0.787839" fill="black" fill-opacity="0" transform="translate(16.3848 35.8196) scale(4.16667 -4.16667)"/>
<rect width="1.50025" height="0.787839" fill="black" fill-opacity="0" transform="translate(16.3848 35.8196) scale(4.16667 -4.16667)"/>
<path d="M22.6358 35.8196H16.3848V32.5369H22.6358V35.8196Z" fill="white"/>
<rect width="0.784369" height="0.62526" fill="black" fill-opacity="0" transform="translate(14.793 34.8306) scale(4.16667)"/>
<path d="M14.9551 34.8306C14.9551 34.8306 15.5027 36.3784 16.1624 36.1759C16.8222 35.9744 17.2992 35.2565 17.8418 35.7318C18.3847 36.2073 17.8492 37.2635 17.0085 37.4092C16.1686 37.5547 15.3256 37.0878 15.0974 36.4051C14.8694 35.722 14.793 35.494 14.793 35.494L14.9551 34.8306Z" fill="#030404"/>
<rect width="0.736409" height="0.474443" fill="black" fill-opacity="0" transform="translate(14.793 35.494) scale(4.16667)"/>
<path d="M14.7933 35.494C14.7933 35.494 14.8338 37.0863 16.2683 37.4144C17.491 37.6943 17.8613 36.8433 17.8613 36.8433C17.8613 36.8433 16.9356 37.5721 15.8395 36.9756C14.7434 36.3793 14.7933 35.494 14.7933 35.494Z" fill="#858789"/>
<rect width="0.850701" height="0.570991" fill="black" fill-opacity="0" transform="translate(19.5273 36.4575) scale(4.16667)"/>
<path d="M23.0719 37.3634C23.0719 37.3634 21.7251 38.3199 21.302 37.7801C20.8792 37.24 20.9057 36.3814 20.1852 36.4629C19.4645 36.5439 19.2898 37.7128 19.8931 38.3091C20.4962 38.9052 21.458 39.0011 22.0413 38.5716C22.6247 38.1417 22.8196 37.9988 22.8196 37.9988L23.0719 37.3634Z" fill="#030404"/>
<rect width="0.793774" height="0.361668" fill="black" fill-opacity="0" transform="translate(19.5117 37.3618) scale(4.16667)"/>
<path d="M22.8191 37.9988C22.8191 37.9988 21.8614 39.279 20.4958 38.7334C19.333 38.269 19.5233 37.3618 19.5233 37.3618C19.5233 37.3618 19.8579 38.4838 21.1019 38.618C22.3461 38.7516 22.8191 37.9988 22.8191 37.9988Z" fill="#858789"/>
<rect width="0.374272" height="0.932715" fill="black" fill-opacity="0" transform="translate(17.375 36.5122) scale(4.16667)"/>
<path d="M17.375 40.1761L18.7184 36.636L18.8682 36.5122L18.9345 36.723L17.8442 40.3985C17.8442 40.3985 17.4563 40.4046 17.375 40.1761Z" fill="#030404"/>
</svg>
