<svg width="112" height="92" viewBox="0 0 112 92" fill="none" xmlns="http://www.w3.org/2000/svg">
<rect width="80" height="80" rx="8" transform="translate(0 12)" fill="#20223E"/>
<rect width="80" height="80" rx="8" transform="translate(12)" fill="#353969"/>
<path d="M0 0H72V54C72 57.866 68.866 61 65 61H7C3.13401 61 0 57.866 0 54V0Z" transform="translate(16 15)" fill="#4149A6"/>
<path fill-rule="evenodd" clip-rule="evenodd" d="M0 2C0 0.895416 0.895508 0 2 0C3.10449 0 4 0.895416 4 2C4 3.10458 3.10449 4 2 4C0.895508 4 0 3.10458 0 2ZM7 2C7 0.895416 7.89551 0 9 0C10.1045 0 11 0.895416 11 2C11 3.10458 10.1045 4 9 4C7.89551 4 7 3.10458 7 2ZM16 0C14.8955 0 14 0.895416 14 2C14 3.10458 14.8955 4 16 4C17.1045 4 18 3.10458 18 2C18 0.895416 17.1045 0 16 0Z" transform="translate(20 6)" fill="#4149A6"/>
<path d="M0 4C0 1.79086 1.79086 0 4 0H52C54.2091 0 56 1.79086 56 4V18C56 20.2091 54.2091 22 52 22H4C1.79086 22 0 20.2091 0 18V4Z" transform="translate(24 23)" fill="#FAFAFF"/>
<path d="M0 2C0 0.895431 0.895431 0 2 0H46C47.1046 0 48 0.895431 48 2C48 3.10457 47.1046 4 46 4H2C0.895431 4 0 3.10457 0 2Z" transform="translate(28 53)" fill="#FAFAFF"/>
<path d="M0 2C0 0.895431 0.895431 0 2 0H46C47.1046 0 48 0.895431 48 2C48 3.10457 47.1046 4 46 4H2C0.895431 4 0 3.10457 0 2Z" transform="translate(28 61)" fill="#FAFAFF"/>
<circle cx="20" cy="20" r="20" transform="translate(72 27)" fill="#765AEA"/>
<rect width="16" height="12" rx="2" transform="translate(84 45)" fill="#FAFAFF"/>
<path d="M0 10H8V4C8 1.79086 6.20914 0 4 0V0C1.79086 0 0 1.79086 0 4V6" transform="translate(88 36)" stroke="#E4DEFB" stroke-width="2" stroke-linecap="round" stroke-linejoin="round"/>
</svg>
